<svg width="164" height="56" viewBox="0 0 164 56" fill="none" xmlns="http://www.w3.org/2000/svg">
<rect y="0.110168" width="164" height="55.7981" rx="7" fill="#151C2A"/>
<path d="M59.516 21.9525C58.564 21.9525 57.84 21.7005 57.344 21.1965C56.856 20.6925 56.568 20.0365 56.48 19.2285H57.488C57.56 19.8125 57.744 20.2725 58.04 20.6085C58.344 20.9445 58.836 21.1125 59.516 21.1125C60.156 21.1125 60.644 20.9565 60.98 20.6445C61.316 20.3245 61.484 19.8845 61.484 19.3245C61.484 18.7965 61.328 18.4165 61.016 18.1845C60.712 17.9445 60.192 17.8245 59.456 17.8245H58.364V17.0325H59.456C60.56 17.0325 61.112 16.5085 61.112 15.4605C61.112 14.4845 60.58 13.9965 59.516 13.9965C58.988 13.9965 58.584 14.1165 58.304 14.3565C58.032 14.5885 57.844 14.9765 57.74 15.5205H56.804C56.988 13.9445 57.916 13.1565 59.588 13.1565C60.348 13.1565 60.96 13.3685 61.424 13.7925C61.896 14.2085 62.132 14.7645 62.132 15.4605C62.132 15.9085 62.008 16.3085 61.76 16.6605C61.52 17.0045 61.172 17.2445 60.716 17.3805C61.308 17.4685 61.756 17.6805 62.06 18.0165C62.364 18.3525 62.516 18.7885 62.516 19.3245C62.516 20.0845 62.236 20.7125 61.676 21.2085C61.124 21.7045 60.404 21.9525 59.516 21.9525ZM65.7887 21.9525C65.1727 21.9525 64.6687 21.8005 64.2767 21.4965C63.8927 21.1845 63.7007 20.7205 63.7007 20.1045C63.7007 19.7605 63.7847 19.4605 63.9527 19.2045C64.1287 18.9405 64.3687 18.7365 64.6727 18.5925C64.9767 18.4405 65.3087 18.3325 65.6687 18.2685C66.0287 18.1965 66.4207 18.1605 66.8447 18.1605H67.7447V17.7045C67.7447 17.2005 67.6407 16.8405 67.4327 16.6245C67.2247 16.4005 66.8807 16.2885 66.4007 16.2885C65.5367 16.2885 65.0567 16.6645 64.9607 17.4165H63.9647C64.0287 16.7445 64.2887 16.2525 64.7447 15.9405C65.2087 15.6205 65.7767 15.4605 66.4487 15.4605C67.9767 15.4605 68.7407 16.2085 68.7407 17.7045V21.8445H67.7447V21.0525C67.2647 21.6525 66.6127 21.9525 65.7887 21.9525ZM65.8847 21.1605C66.4287 21.1605 66.8727 21.0285 67.2167 20.7645C67.5687 20.4925 67.7447 20.1205 67.7447 19.6485V18.8685H66.8807C65.4247 18.8685 64.6967 19.2805 64.6967 20.1045C64.6967 20.8085 65.0927 21.1605 65.8847 21.1605ZM71.6212 16.4085V21.8445H70.6252V15.5685H74.6092V16.4085H71.6212ZM76.0527 15.5685H77.0487V16.6245C77.2327 16.3045 77.5207 16.0325 77.9127 15.8085C78.3047 15.5765 78.7247 15.4605 79.1727 15.4605C80.0127 15.4605 80.6967 15.7445 81.2247 16.3125C81.7607 16.8805 82.0287 17.6485 82.0287 18.6165V18.7125C82.0287 19.6805 81.7647 20.4645 81.2367 21.0645C80.7167 21.6565 80.0287 21.9525 79.1727 21.9525C78.2127 21.9525 77.5047 21.5725 77.0487 20.8125V24.0285H76.0527V15.5685ZM79.0767 21.1245C79.7007 21.1245 80.1767 20.9245 80.5047 20.5245C80.8327 20.1165 80.9967 19.5285 80.9967 18.7605V18.6645C80.9967 17.9045 80.8127 17.3205 80.4447 16.9125C80.0847 16.4965 79.6247 16.2885 79.0647 16.2885C78.4567 16.2885 77.9607 16.4925 77.5767 16.9005C77.2007 17.3005 77.0127 17.8885 77.0127 18.6645V18.7605C77.0127 19.5365 77.1967 20.1245 77.5647 20.5245C77.9407 20.9245 78.4447 21.1245 79.0767 21.1245ZM85.2109 21.1965L82.7509 15.5685H83.8189L85.7389 20.0685L87.4789 15.5685H88.4989L85.0309 24.0285H84.0229L85.2109 21.1965ZM93.6653 17.2005C93.6653 17.5125 93.5733 17.8005 93.3893 18.0645C93.2133 18.3205 92.9613 18.4805 92.6333 18.5445C93.0413 18.6165 93.3653 18.7725 93.6053 19.0125C93.8453 19.2525 93.9653 19.5685 93.9653 19.9605V19.9965C93.9653 20.5805 93.7493 21.0525 93.3173 21.4125C92.8933 21.7725 92.3133 21.9525 91.5773 21.9525C90.8173 21.9525 90.2213 21.7765 89.7893 21.4245C89.3653 21.0645 89.1373 20.5605 89.1053 19.9125H90.0773C90.1253 20.3125 90.2613 20.6165 90.4853 20.8245C90.7173 21.0245 91.0813 21.1245 91.5773 21.1245C92.4733 21.1245 92.9213 20.7685 92.9213 20.0565V20.0205C92.9213 19.6685 92.8133 19.4125 92.5973 19.2525C92.3893 19.0925 92.0653 19.0125 91.6253 19.0125H90.6773V18.2205H91.4573C91.8733 18.2205 92.1693 18.1445 92.3453 17.9925C92.5293 17.8405 92.6213 17.5925 92.6213 17.2485V17.2125C92.6213 16.5965 92.2613 16.2885 91.5413 16.2885C90.8453 16.2885 90.4293 16.6165 90.2933 17.2725H89.3333C89.4053 16.6405 89.6453 16.1805 90.0533 15.8925C90.4693 15.6045 90.9853 15.4605 91.6013 15.4605C92.1933 15.4605 92.6853 15.6125 93.0773 15.9165C93.4693 16.2125 93.6653 16.6285 93.6653 17.1645V17.2005ZM95.551 21.8445V15.5685H96.547V20.4045L99.751 15.5685H100.747V21.8445H99.751V17.0085L96.547 21.8445H95.551ZM107.045 16.4085H105.017V21.8445H104.021V16.4085H101.993V15.5685H107.045V16.4085ZM110.824 21.9525C109.928 21.9525 109.196 21.6605 108.628 21.0765C108.068 20.4925 107.788 19.7245 107.788 18.7725V18.6765C107.788 17.7325 108.06 16.9605 108.604 16.3605C109.156 15.7605 109.864 15.4605 110.728 15.4605C111.528 15.4605 112.196 15.7205 112.732 16.2405C113.276 16.7525 113.548 17.5325 113.548 18.5805V18.9045H108.82C108.868 20.3845 109.54 21.1245 110.836 21.1245C111.82 21.1245 112.376 20.7605 112.504 20.0325H113.5C113.388 20.6565 113.096 21.1325 112.624 21.4605C112.152 21.7885 111.552 21.9525 110.824 21.9525ZM112.528 18.1005C112.44 16.8925 111.84 16.2885 110.728 16.2885C110.224 16.2885 109.808 16.4485 109.48 16.7685C109.152 17.0885 108.944 17.5325 108.856 18.1005H112.528ZM118.18 15.5685H120.376C121.848 15.5685 122.584 16.1005 122.584 17.1645V17.2005C122.584 17.5045 122.5 17.7845 122.332 18.0405C122.164 18.2885 121.912 18.4565 121.576 18.5445C122.448 18.7365 122.884 19.2085 122.884 19.9605V19.9965C122.884 20.6045 122.684 21.0645 122.284 21.3765C121.892 21.6885 121.344 21.8445 120.64 21.8445H118.18V15.5685ZM119.176 16.3605V18.2205H120.376C120.792 18.2205 121.088 18.1445 121.264 17.9925C121.448 17.8405 121.54 17.5925 121.54 17.2485V17.2125C121.54 16.8925 121.444 16.6725 121.252 16.5525C121.068 16.4245 120.772 16.3605 120.364 16.3605H119.176ZM119.176 19.0125V21.0525H120.544C120.984 21.0525 121.308 20.9765 121.516 20.8245C121.732 20.6645 121.84 20.4085 121.84 20.0565V20.0205C121.84 19.6685 121.732 19.4125 121.516 19.2525C121.308 19.0925 120.984 19.0125 120.544 19.0125H119.176ZM60.716 30.9745H64.514L68.69 43.8445H65.648L64.766 40.9825H60.104L59.222 43.8445H56.486L60.716 30.9745ZM60.734 38.9125H64.136L62.444 33.3505L60.734 38.9125ZM70.4436 34.4305H73.0536V35.9065C73.3296 35.4145 73.7316 35.0125 74.2596 34.7005C74.7996 34.3765 75.3996 34.2145 76.0596 34.2145C77.2476 34.2145 78.2196 34.6285 78.9756 35.4565C79.7676 36.3205 80.1636 37.5145 80.1636 39.0385V39.1825C80.1636 40.6945 79.7736 41.8885 78.9936 42.7645C78.2496 43.6165 77.2716 44.0425 76.0596 44.0425C75.3636 44.0425 74.7516 43.8925 74.2236 43.5925C73.6956 43.2805 73.3056 42.8845 73.0536 42.4045V47.0485H70.4436V34.4305ZM75.2856 42.0085C76.0056 42.0085 76.5576 41.7745 76.9416 41.3065C77.3256 40.8265 77.5176 40.1245 77.5176 39.2005V39.0565C77.5176 38.1205 77.3136 37.4125 76.9056 36.9325C76.4976 36.4525 75.9516 36.2125 75.2676 36.2125C74.5596 36.2125 73.9956 36.4585 73.5756 36.9505C73.1676 37.4305 72.9636 38.1325 72.9636 39.0565V39.2005C72.9636 40.1245 73.1676 40.8265 73.5756 41.3065C73.9836 41.7745 74.5536 42.0085 75.2856 42.0085ZM82.133 34.4305H84.743V35.9065C85.019 35.4145 85.421 35.0125 85.949 34.7005C86.489 34.3765 87.089 34.2145 87.749 34.2145C88.937 34.2145 89.909 34.6285 90.665 35.4565C91.457 36.3205 91.853 37.5145 91.853 39.0385V39.1825C91.853 40.6945 91.463 41.8885 90.683 42.7645C89.939 43.6165 88.961 44.0425 87.749 44.0425C87.053 44.0425 86.441 43.8925 85.913 43.5925C85.385 43.2805 84.995 42.8845 84.743 42.4045V47.0485H82.133V34.4305ZM86.975 42.0085C87.695 42.0085 88.247 41.7745 88.631 41.3065C89.015 40.8265 89.207 40.1245 89.207 39.2005V39.0565C89.207 38.1205 89.003 37.4125 88.595 36.9325C88.187 36.4525 87.641 36.2125 86.957 36.2125C86.249 36.2125 85.685 36.4585 85.265 36.9505C84.857 37.4305 84.653 38.1325 84.653 39.0565V39.2005C84.653 40.1245 84.857 40.8265 85.265 41.3065C85.673 41.7745 86.243 42.0085 86.975 42.0085ZM102.547 44.0425C100.831 44.0425 99.5227 43.6585 98.6227 42.8905C97.7707 42.1585 97.3087 41.1325 97.2367 39.8125H100.027C100.111 40.4965 100.309 40.9885 100.621 41.2885C101.041 41.7085 101.683 41.9185 102.547 41.9185C103.195 41.9185 103.711 41.7625 104.095 41.4505C104.479 41.1265 104.671 40.7125 104.671 40.2085C104.671 39.7165 104.503 39.3445 104.167 39.0925C103.795 38.8645 103.153 38.6785 102.241 38.5345C100.549 38.3185 99.3667 37.9225 98.6947 37.3465C97.9627 36.7825 97.5967 35.8765 97.5967 34.6285C97.5967 33.5365 98.0227 32.6185 98.8747 31.8745C99.7507 31.1545 100.885 30.7945 102.277 30.7945C103.741 30.7945 104.881 31.1185 105.697 31.7665C106.513 32.4145 106.981 33.3745 107.101 34.6465H104.419C104.263 33.5065 103.549 32.9365 102.277 32.9365C101.653 32.9365 101.173 33.0685 100.837 33.3325C100.513 33.5965 100.351 33.9505 100.351 34.3945C100.351 34.8865 100.507 35.2345 100.819 35.4385C101.143 35.6905 101.785 35.8885 102.745 36.0325C104.377 36.2365 105.553 36.6025 106.273 37.1305C107.065 37.7305 107.461 38.6665 107.461 39.9385C107.461 41.1265 107.023 42.0925 106.147 42.8365C105.223 43.6405 104.023 44.0425 102.547 44.0425ZM112.993 44.0245C110.965 44.0245 109.951 43.0345 109.951 41.0545V36.2845H108.745V34.4305H109.951V32.3965H112.543V34.4305H114.523V36.2845H112.543V40.8205C112.543 41.5645 112.891 41.9365 113.587 41.9365C113.971 41.9365 114.301 41.8765 114.577 41.7565V43.7725C114.097 43.9405 113.569 44.0245 112.993 44.0245ZM120.943 42.0625C121.675 42.0625 122.239 41.8105 122.635 41.3065C123.043 40.8025 123.247 40.1005 123.247 39.2005V39.0745C123.247 38.1745 123.043 37.4725 122.635 36.9685C122.239 36.4525 121.675 36.1945 120.943 36.1945C120.223 36.1945 119.659 36.4465 119.251 36.9505C118.843 37.4425 118.639 38.1385 118.639 39.0385V39.1825C118.639 40.0945 118.837 40.8025 119.233 41.3065C119.629 41.8105 120.199 42.0625 120.943 42.0625ZM120.925 44.0425C119.485 44.0425 118.309 43.6045 117.397 42.7285C116.449 41.8525 115.975 40.6885 115.975 39.2365V39.0925C115.975 37.6405 116.449 36.4585 117.397 35.5465C118.321 34.6585 119.503 34.2145 120.943 34.2145C122.395 34.2145 123.577 34.6525 124.489 35.5285C125.425 36.4405 125.893 37.6105 125.893 39.0385V39.1825C125.893 40.6345 125.419 41.8165 124.471 42.7285C123.559 43.6045 122.377 44.0425 120.925 44.0425ZM127.854 34.4305H130.464V36.2305C131.064 34.9465 132.078 34.2985 133.506 34.2865V36.7165C132.498 36.7045 131.736 36.8845 131.22 37.2565C130.716 37.6285 130.464 38.2525 130.464 39.1285V43.8445H127.854V34.4305ZM139.592 44.0425C138.128 44.0425 136.958 43.6165 136.082 42.7645C135.146 41.9005 134.678 40.7305 134.678 39.2545V39.1105C134.678 37.6465 135.146 36.4585 136.082 35.5465C136.994 34.6585 138.14 34.2145 139.52 34.2145C140.828 34.2145 141.896 34.5925 142.724 35.3485C143.648 36.1885 144.11 37.4065 144.11 39.0025V39.7225H137.324C137.36 40.5145 137.576 41.1265 137.972 41.5585C138.38 41.9785 138.944 42.1885 139.664 42.1885C140.792 42.1885 141.446 41.7505 141.626 40.8745H144.092C143.936 41.8945 143.468 42.6805 142.688 43.2325C141.92 43.7725 140.888 44.0425 139.592 44.0425ZM141.572 38.1205C141.488 36.7165 140.804 36.0145 139.52 36.0145C138.932 36.0145 138.446 36.2005 138.062 36.5725C137.69 36.9325 137.456 37.4485 137.36 38.1205H141.572Z" fill="#F5F5F7"/>
<path d="M41.7515 28.9807C41.7672 27.8015 42.0929 26.6452 42.6983 25.6197C43.3036 24.5942 44.169 23.7328 45.2137 23.1157C44.545 22.2068 43.6675 21.4585 42.6493 20.929C41.6311 20.3994 40.4997 20.1029 39.343 20.0626C36.8342 19.8212 34.4884 21.4866 33.234 21.4866C31.9796 21.4866 30.0102 20.0867 27.9279 20.135C26.5798 20.1754 25.2657 20.5513 24.1137 21.226C22.9617 21.9007 22.0111 22.8511 21.3548 23.9846C18.5073 28.7273 20.6272 35.6784 23.3493 39.5039C24.7166 41.3744 26.3097 43.4743 28.3669 43.4019C30.4242 43.3294 31.1643 42.1951 33.6229 42.1951C36.0815 42.1951 36.7715 43.4019 38.904 43.4019C41.0365 43.4019 42.4665 41.5193 43.7836 39.6246C44.7597 38.2891 45.513 36.8151 46.0165 35.256C44.742 34.7306 43.6573 33.8547 42.8986 32.7382C42.1398 31.6218 41.7407 30.3146 41.7515 28.9807Z" fill="#F5F5F7"/>
<path d="M37.7374 17.5524C38.9274 16.1738 39.5123 14.4033 39.3681 12.6167C37.549 12.7973 35.8683 13.6338 34.6641 14.9578C34.0709 15.604 33.6169 16.357 33.3284 17.1732C33.0398 17.9893 32.9225 18.8525 32.9832 19.7126C33.8934 19.7192 34.7935 19.5285 35.6165 19.1545C36.4396 18.7805 37.1645 18.2329 37.7374 17.5524Z" fill="#F5F5F7"/>
</svg>
