<svg width="17" height="22" viewBox="0 0 17 22" fill="none" xmlns="http://www.w3.org/2000/svg">
<path d="M16.6097 21.7722H8.64954C4.26023 21.7722 0.689331 16.9201 0.689331 10.9559C0.689331 4.99177 4.26023 0.139648 8.64954 0.139648C13.0388 0.139648 16.6097 4.99177 16.6097 10.9559V21.7722ZM8.64954 2.84372C5.35725 2.84372 2.67938 6.48323 2.67938 10.9559C2.67938 15.4286 5.35725 19.0681 8.64954 19.0681H14.6197V10.9559C14.6197 6.48323 11.9418 2.84372 8.64954 2.84372ZM11.5413 9.8067C11.8125 9.43791 11.9648 8.93794 11.9648 8.41664C11.9648 7.89534 11.8125 7.39537 11.5413 7.02658C11.2699 6.65776 10.9017 6.45055 10.5179 6.45055C10.134 6.45055 9.76582 6.65776 9.49438 7.02658L5.33268 12.681V15.4629H7.37995L11.5413 9.8067Z" fill="#A1A1A1"/>
</svg>
