<svg width="185" height="56" viewBox="0 0 185 56" fill="none" xmlns="http://www.w3.org/2000/svg">
<rect y="0.110168" width="185" height="55.7981" rx="7" fill="#151C2A"/>
<path d="M61.532 18.8325C61.46 19.8325 61.272 20.5445 60.968 20.9685H65.144V14.1165H61.784C61.768 14.3405 61.748 14.7645 61.724 15.3885C61.7 16.0045 61.672 16.6125 61.64 17.2125C61.608 17.8045 61.572 18.3445 61.532 18.8325ZM59.984 23.4045H59.12V20.9685H59.66C59.948 20.8805 60.156 20.6605 60.284 20.3085C60.42 19.9565 60.524 19.4365 60.596 18.7485C60.692 17.5565 60.76 16.3445 60.8 15.1125C60.832 14.2725 60.852 13.6565 60.86 13.2645H66.164V20.9685H67.124V23.4045H66.26L66.2 21.8445H60.044L59.984 23.4045ZM71.0632 21.1245C71.6872 21.1245 72.1832 20.9085 72.5512 20.4765C72.9272 20.0445 73.1152 19.4725 73.1152 18.7605V18.6765C73.1152 17.9485 72.9272 17.3685 72.5512 16.9365C72.1832 16.5045 71.6872 16.2885 71.0632 16.2885C70.4312 16.2885 69.9312 16.5045 69.5632 16.9365C69.1952 17.3685 69.0112 17.9445 69.0112 18.6645V18.7605C69.0112 19.4885 69.1912 20.0645 69.5512 20.4885C69.9192 20.9125 70.4232 21.1245 71.0632 21.1245ZM71.0512 21.9525C70.1632 21.9525 69.4272 21.6525 68.8432 21.0525C68.2672 20.4445 67.9792 19.6805 67.9792 18.7605V18.6645C67.9792 17.7285 68.2672 16.9605 68.8432 16.3605C69.4272 15.7605 70.1672 15.4605 71.0632 15.4605C71.9592 15.4605 72.6952 15.7605 73.2712 16.3605C73.8552 16.9525 74.1472 17.7165 74.1472 18.6525V18.7485C74.1472 19.6925 73.8552 20.4645 73.2712 21.0645C72.6872 21.6565 71.9472 21.9525 71.0512 21.9525ZM78.2934 21.9525C77.3974 21.9525 76.6614 21.6645 76.0854 21.0885C75.5094 20.5045 75.2214 19.7325 75.2214 18.7725V18.6765C75.2214 17.7325 75.5134 16.9605 76.0974 16.3605C76.6894 15.7605 77.4134 15.4605 78.2694 15.4605C78.9894 15.4605 79.6014 15.6405 80.1054 16.0005C80.6094 16.3525 80.9054 16.9045 80.9934 17.6565H80.0094C79.8654 16.7445 79.2854 16.2885 78.2694 16.2885C77.6854 16.2885 77.2014 16.5085 76.8174 16.9485C76.4414 17.3805 76.2534 17.9565 76.2534 18.6765V18.7725C76.2534 19.5245 76.4374 20.1045 76.8054 20.5125C77.1814 20.9205 77.6814 21.1245 78.3054 21.1245C78.7774 21.1245 79.1814 20.9925 79.5174 20.7285C79.8614 20.4565 80.0574 20.0765 80.1054 19.5885H81.0294C80.9654 20.2765 80.6774 20.8445 80.1654 21.2925C79.6614 21.7325 79.0374 21.9525 78.2934 21.9525ZM86.8651 16.4085H84.8371V21.8445H83.8411V16.4085H81.8131V15.5685H86.8651V16.4085ZM90.2383 21.1965L87.7783 15.5685H88.8463L90.7663 20.0685L92.5063 15.5685H93.5263L90.0583 24.0285H89.0503L90.2383 21.1965ZM98.7258 16.4085H95.7618V21.8445H94.7658V15.5685H99.7218V21.8445H98.7258V16.4085ZM105.818 19.0485H102.734V21.8445H101.738V15.5685H102.734V18.2085H105.818V15.5685H106.814V21.8445H105.818V19.0485ZM111.516 21.1245C112.14 21.1245 112.636 20.9085 113.004 20.4765C113.38 20.0445 113.568 19.4725 113.568 18.7605V18.6765C113.568 17.9485 113.38 17.3685 113.004 16.9365C112.636 16.5045 112.14 16.2885 111.516 16.2885C110.884 16.2885 110.384 16.5045 110.016 16.9365C109.648 17.3685 109.464 17.9445 109.464 18.6645V18.7605C109.464 19.4885 109.644 20.0645 110.004 20.4885C110.372 20.9125 110.876 21.1245 111.516 21.1245ZM111.504 21.9525C110.616 21.9525 109.88 21.6525 109.296 21.0525C108.72 20.4445 108.432 19.6805 108.432 18.7605V18.6645C108.432 17.7285 108.72 16.9605 109.296 16.3605C109.88 15.7605 110.62 15.4605 111.516 15.4605C112.412 15.4605 113.148 15.7605 113.724 16.3605C114.308 16.9525 114.6 17.7165 114.6 18.6525V18.7485C114.6 19.6925 114.308 20.4645 113.724 21.0645C113.14 21.6565 112.4 21.9525 111.504 21.9525ZM119.246 15.5685H121.442C122.914 15.5685 123.65 16.1005 123.65 17.1645V17.2005C123.65 17.5045 123.566 17.7845 123.398 18.0405C123.23 18.2885 122.978 18.4565 122.642 18.5445C123.514 18.7365 123.95 19.2085 123.95 19.9605V19.9965C123.95 20.6045 123.75 21.0645 123.35 21.3765C122.958 21.6885 122.41 21.8445 121.706 21.8445H119.246V15.5685ZM120.242 16.3605V18.2205H121.442C121.858 18.2205 122.154 18.1445 122.33 17.9925C122.514 17.8405 122.606 17.5925 122.606 17.2485V17.2125C122.606 16.8925 122.51 16.6725 122.318 16.5525C122.134 16.4245 121.838 16.3605 121.43 16.3605H120.242ZM120.242 19.0125V21.0525H121.61C122.05 21.0525 122.374 20.9765 122.582 20.8245C122.798 20.6645 122.906 20.4085 122.906 20.0565V20.0205C122.906 19.6685 122.798 19.4125 122.582 19.2525C122.374 19.0925 122.05 19.0125 121.61 19.0125H120.242ZM66.38 44.0425C64.316 44.0425 62.702 43.4245 61.538 42.1885C60.398 41.0245 59.828 39.4585 59.828 37.4905V37.3465C59.828 35.4025 60.446 33.8245 61.682 32.6125C62.906 31.3885 64.472 30.7765 66.38 30.7765C67.928 30.7765 69.2 31.1245 70.196 31.8205C71.336 32.6365 71.972 33.7885 72.104 35.2765H69.206C68.942 33.8125 68.012 33.0805 66.416 33.0805C65.3 33.0805 64.43 33.4645 63.806 34.2325C63.182 35.0005 62.87 36.0505 62.87 37.3825V37.5265C62.87 38.8465 63.152 39.8665 63.716 40.5865C64.316 41.3905 65.228 41.7925 66.452 41.7925C67.472 41.7925 68.252 41.5225 68.792 40.9825C69.272 40.5145 69.524 39.8785 69.548 39.0745H66.65V36.9505H72.428V38.3185C72.428 40.0585 71.9 41.4385 70.844 42.4585C69.764 43.5145 68.276 44.0425 66.38 44.0425ZM78.9079 42.0625C79.6399 42.0625 80.2039 41.8105 80.5999 41.3065C81.0079 40.8025 81.2119 40.1005 81.2119 39.2005V39.0745C81.2119 38.1745 81.0079 37.4725 80.5999 36.9685C80.2039 36.4525 79.6399 36.1945 78.9079 36.1945C78.1879 36.1945 77.6239 36.4465 77.2159 36.9505C76.8079 37.4425 76.6039 38.1385 76.6039 39.0385V39.1825C76.6039 40.0945 76.8019 40.8025 77.1979 41.3065C77.5939 41.8105 78.1639 42.0625 78.9079 42.0625ZM78.8899 44.0425C77.4499 44.0425 76.2739 43.6045 75.3619 42.7285C74.4139 41.8525 73.9399 40.6885 73.9399 39.2365V39.0925C73.9399 37.6405 74.4139 36.4585 75.3619 35.5465C76.2859 34.6585 77.4679 34.2145 78.9079 34.2145C80.3599 34.2145 81.5419 34.6525 82.4539 35.5285C83.3899 36.4405 83.8579 37.6105 83.8579 39.0385V39.1825C83.8579 40.6345 83.3839 41.8165 82.4359 42.7285C81.5239 43.6045 80.3419 44.0425 78.8899 44.0425ZM90.2106 42.0625C90.9426 42.0625 91.5066 41.8105 91.9026 41.3065C92.3106 40.8025 92.5146 40.1005 92.5146 39.2005V39.0745C92.5146 38.1745 92.3106 37.4725 91.9026 36.9685C91.5066 36.4525 90.9426 36.1945 90.2106 36.1945C89.4906 36.1945 88.9266 36.4465 88.5186 36.9505C88.1106 37.4425 87.9066 38.1385 87.9066 39.0385V39.1825C87.9066 40.0945 88.1046 40.8025 88.5006 41.3065C88.8966 41.8105 89.4666 42.0625 90.2106 42.0625ZM90.1926 44.0425C88.7526 44.0425 87.5766 43.6045 86.6646 42.7285C85.7166 41.8525 85.2426 40.6885 85.2426 39.2365V39.0925C85.2426 37.6405 85.7166 36.4585 86.6646 35.5465C87.5886 34.6585 88.7706 34.2145 90.2106 34.2145C91.6626 34.2145 92.8446 34.6525 93.7566 35.5285C94.6926 36.4405 95.1606 37.6105 95.1606 39.0385V39.1825C95.1606 40.6345 94.6866 41.8165 93.7386 42.7285C92.8266 43.6045 91.6446 44.0425 90.1926 44.0425ZM101.297 47.3185C99.8093 47.3185 98.6813 47.0185 97.9133 46.4185C97.1813 45.8785 96.7493 45.0865 96.6173 44.0425H99.2093C99.3893 44.9545 100.085 45.4105 101.297 45.4105C102.881 45.4105 103.673 44.6425 103.673 43.1065V41.6845C103.361 42.2125 102.965 42.6145 102.485 42.8905C101.933 43.2505 101.321 43.4305 100.649 43.4305C99.4613 43.4305 98.4953 43.0285 97.7513 42.2245C96.9473 41.3845 96.5453 40.2865 96.5453 38.9305V38.8045C96.5453 37.4605 96.9413 36.3565 97.7333 35.4925C98.5253 34.6405 99.5093 34.2145 100.685 34.2145C102.041 34.2145 103.037 34.7545 103.673 35.8345V34.4305H106.265V43.1065C106.253 44.4865 105.815 45.5305 104.951 46.2385C104.099 46.9585 102.881 47.3185 101.297 47.3185ZM101.423 41.4685C102.119 41.4685 102.677 41.2405 103.097 40.7845C103.529 40.3165 103.745 39.6865 103.745 38.8945V38.7685C103.745 37.9645 103.547 37.3345 103.151 36.8785C102.755 36.4225 102.197 36.1945 101.477 36.1945C100.757 36.1945 100.199 36.4285 99.8033 36.8965C99.4073 37.3645 99.2093 37.9945 99.2093 38.7865V38.9305C99.2093 39.7105 99.4133 40.3285 99.8213 40.7845C100.229 41.2405 100.763 41.4685 101.423 41.4685ZM108.865 30.1645H111.457V43.8445H108.865V30.1645ZM118.387 44.0425C116.923 44.0425 115.753 43.6165 114.877 42.7645C113.941 41.9005 113.473 40.7305 113.473 39.2545V39.1105C113.473 37.6465 113.941 36.4585 114.877 35.5465C115.789 34.6585 116.935 34.2145 118.315 34.2145C119.623 34.2145 120.691 34.5925 121.519 35.3485C122.443 36.1885 122.905 37.4065 122.905 39.0025V39.7225H116.119C116.155 40.5145 116.371 41.1265 116.767 41.5585C117.175 41.9785 117.739 42.1885 118.459 42.1885C119.587 42.1885 120.241 41.7505 120.421 40.8745H122.887C122.731 41.8945 122.263 42.6805 121.483 43.2325C120.715 43.7725 119.683 44.0425 118.387 44.0425ZM120.367 38.1205C120.283 36.7165 119.599 36.0145 118.315 36.0145C117.727 36.0145 117.241 36.2005 116.857 36.5725C116.485 36.9325 116.251 37.4485 116.155 38.1205H120.367ZM129.049 30.9745H133.495C135.091 30.9745 136.309 31.3225 137.149 32.0185C137.989 32.7025 138.409 33.7225 138.409 35.0785V35.1505C138.409 36.4825 137.971 37.4905 137.095 38.1745C136.255 38.8345 135.085 39.1645 133.585 39.1645H131.947V43.8445H129.049V30.9745ZM133.423 37.1305C134.875 37.1305 135.601 36.4765 135.601 35.1685V35.0965C135.601 33.8245 134.875 33.1885 133.423 33.1885H131.947V37.1305H133.423ZM140.365 30.1645H142.957V43.8445H140.365V30.1645ZM148.087 44.0425C147.175 44.0425 146.437 43.8205 145.873 43.3765C145.249 42.8845 144.937 42.1705 144.937 41.2345C144.937 40.1905 145.393 39.4105 146.305 38.8945C147.121 38.4385 148.297 38.2105 149.833 38.2105H150.895V37.8325C150.895 37.2325 150.781 36.7945 150.553 36.5185C150.337 36.2425 149.941 36.1045 149.365 36.1045C148.441 36.1045 147.907 36.5485 147.763 37.4365H145.297C145.369 36.3805 145.807 35.5645 146.611 34.9885C147.343 34.4725 148.315 34.2145 149.527 34.2145C150.739 34.2145 151.687 34.4785 152.371 35.0065C153.103 35.5825 153.469 36.4825 153.469 37.7065V43.8445H150.931V42.7105C150.295 43.5985 149.347 44.0425 148.087 44.0425ZM148.861 42.2245C149.449 42.2245 149.935 42.0745 150.319 41.7745C150.703 41.4745 150.895 41.0665 150.895 40.5505V39.7585H149.887C149.095 39.7585 148.495 39.8605 148.087 40.0645C147.691 40.2685 147.493 40.6105 147.493 41.0905C147.493 41.8465 147.949 42.2245 148.861 42.2245ZM158.5 42.8905L154.756 34.4305H157.564L159.85 40.0825L161.956 34.4305H164.458L159.364 47.0485H156.844L158.5 42.8905Z" fill="#F5F5F7"/>
<path d="M25.0188 13.399L42.5773 23.0786L38.8141 26.6867L25.0188 13.399ZM21.3807 12.6167L37.4987 28.0093L21.3823 43.4019C20.9719 43.2305 20.6226 42.9481 20.377 42.5893C20.1315 42.2304 20.0005 41.8107 20 41.3816C20 41.3519 20 41.3227 20 41.2942V14.7216C20 14.6974 20 14.6677 20 14.6381C20 14.2114 20.1292 13.7938 20.372 13.4362C20.6147 13.0785 20.9606 12.7961 21.3675 12.6232L21.3823 12.6167H21.3807ZM48.0348 26.2056C48.3166 26.4046 48.5456 26.6643 48.7034 26.9638C48.8611 27.2633 48.9433 27.5941 48.9432 27.9296C48.9432 27.9581 48.9432 27.985 48.9432 28.0131V28.0093C48.9484 28.0643 48.9524 28.1297 48.9524 28.1951C48.9527 28.5093 48.8758 28.8191 48.7279 29.0995C48.5801 29.3799 48.3655 29.623 48.1015 29.809L48.0962 29.8129L44.3314 31.8574L40.2562 28.0093L44.333 24.1007L48.0348 26.2056ZM25.0188 42.6195L38.8153 29.3319L42.5789 32.9399L25.0188 42.6195Z" fill="#F5F5F7"/>
</svg>
