<svg width="156" height="56" viewBox="0 0 156 56" fill="none" xmlns="http://www.w3.org/2000/svg">
<rect y="0.110168" width="156" height="55.7981" rx="7" fill="#151C2A"/>
<path d="M61.74 21.9525C60.5 21.9525 59.52 21.5605 58.8 20.7765C58.088 19.9925 57.732 18.9365 57.732 17.6085V17.5125C57.732 16.2405 58.112 15.1925 58.872 14.3685C59.632 13.5445 60.596 13.1325 61.764 13.1325C62.7 13.1325 63.488 13.3765 64.128 13.8645C64.776 14.3525 65.148 15.0445 65.244 15.9405H64.212C64.092 15.2765 63.836 14.7805 63.444 14.4525C63.06 14.1245 62.504 13.9605 61.776 13.9605C60.888 13.9605 60.172 14.2845 59.628 14.9325C59.084 15.5725 58.812 16.4285 58.812 17.5005V17.5965C58.812 18.6925 59.072 19.5525 59.592 20.1765C60.12 20.7925 60.844 21.1005 61.764 21.1005C62.476 21.1005 63.056 20.9245 63.504 20.5725C63.96 20.2125 64.244 19.6885 64.356 19.0005H65.328C65.184 19.9685 64.796 20.7045 64.164 21.2085C63.532 21.7045 62.724 21.9525 61.74 21.9525ZM67.7696 18.6405V21.8445H66.7736V15.5685H67.7696V18.4965L70.3736 15.5685H71.5376L68.8496 18.5205L71.7656 21.8445H70.5536L67.7696 18.6405ZM74.5465 21.9525C73.9305 21.9525 73.4265 21.8005 73.0345 21.4965C72.6505 21.1845 72.4585 20.7205 72.4585 20.1045C72.4585 19.7605 72.5425 19.4605 72.7105 19.2045C72.8865 18.9405 73.1265 18.7365 73.4305 18.5925C73.7345 18.4405 74.0665 18.3325 74.4265 18.2685C74.7865 18.1965 75.1785 18.1605 75.6025 18.1605H76.5025V17.7045C76.5025 17.2005 76.3985 16.8405 76.1905 16.6245C75.9825 16.4005 75.6385 16.2885 75.1585 16.2885C74.2945 16.2885 73.8145 16.6645 73.7185 17.4165H72.7225C72.7865 16.7445 73.0465 16.2525 73.5025 15.9405C73.9665 15.6205 74.5345 15.4605 75.2065 15.4605C76.7345 15.4605 77.4985 16.2085 77.4985 17.7045V21.8445H76.5025V21.0525C76.0225 21.6525 75.3705 21.9525 74.5465 21.9525ZM74.6425 21.1605C75.1865 21.1605 75.6305 21.0285 75.9745 20.7645C76.3265 20.4925 76.5025 20.1205 76.5025 19.6485V18.8685H75.6385C74.1825 18.8685 73.4545 19.2805 73.4545 20.1045C73.4545 20.8085 73.8505 21.1605 74.6425 21.1605ZM82.8086 21.8445V18.9165C82.3766 19.3805 81.7766 19.6125 81.0086 19.6125C80.3926 19.6125 79.8886 19.4165 79.4966 19.0245C79.1046 18.6245 78.9086 18.0165 78.9086 17.2005V15.5685H79.9046V17.1525C79.9046 18.2165 80.3606 18.7485 81.2726 18.7485C81.9526 18.7485 82.4646 18.5165 82.8086 18.0525V15.5685H83.8046V21.8445H82.8086ZM87.4606 21.9525C86.8446 21.9525 86.3406 21.8005 85.9486 21.4965C85.5646 21.1845 85.3726 20.7205 85.3726 20.1045C85.3726 19.7605 85.4566 19.4605 85.6246 19.2045C85.8006 18.9405 86.0406 18.7365 86.3446 18.5925C86.6486 18.4405 86.9806 18.3325 87.3406 18.2685C87.7006 18.1965 88.0926 18.1605 88.5166 18.1605H89.4166V17.7045C89.4166 17.2005 89.3126 16.8405 89.1046 16.6245C88.8966 16.4005 88.5526 16.2885 88.0726 16.2885C87.2086 16.2885 86.7286 16.6645 86.6326 17.4165H85.6366C85.7006 16.7445 85.9606 16.2525 86.4166 15.9405C86.8806 15.6205 87.4486 15.4605 88.1206 15.4605C89.6486 15.4605 90.4126 16.2085 90.4126 17.7045V21.8445H89.4166V21.0525C88.9366 21.6525 88.2846 21.9525 87.4606 21.9525ZM87.5566 21.1605C88.1006 21.1605 88.5446 21.0285 88.8886 20.7645C89.2406 20.4925 89.4166 20.1205 89.4166 19.6485V18.8685H88.5526C87.0966 18.8685 86.3686 19.2805 86.3686 20.1045C86.3686 20.8085 86.7646 21.1605 87.5566 21.1605ZM96.5253 16.4085H94.4973V21.8445H93.5013V16.4085H91.4733V15.5685H96.5253V16.4085ZM97.8986 15.5685H98.8946V17.7645H100.011C100.715 17.7645 101.291 17.9365 101.739 18.2805C102.187 18.6245 102.411 19.1365 102.411 19.8165V19.8525C102.411 20.5405 102.187 21.0445 101.739 21.3645C101.299 21.6845 100.723 21.8445 100.011 21.8445H97.8986V15.5685ZM100.071 21.0645C100.551 21.0645 100.895 20.9645 101.103 20.7645C101.311 20.5565 101.415 20.2525 101.415 19.8525V19.8165C101.415 19.3845 101.307 19.0685 101.091 18.8685C100.883 18.6605 100.543 18.5565 100.071 18.5565H98.8946V21.0645H100.071ZM108.228 19.4205C108.14 20.1565 108.004 20.6845 107.82 21.0045H110.76V16.3845H108.456C108.416 17.3605 108.34 18.3725 108.228 19.4205ZM106.98 23.3685H106.176V21.0045H106.62C106.844 20.9485 107 20.7885 107.088 20.5245C107.176 20.2525 107.252 19.8645 107.316 19.3605C107.388 18.7125 107.456 17.8965 107.52 16.9125C107.552 16.4725 107.576 16.0245 107.592 15.5685H111.732V21.0045H112.692V23.3685H111.888L111.816 21.8445H107.052L106.98 23.3685ZM115.317 19.4205C115.245 20.2845 115.093 20.9165 114.861 21.3165C114.629 21.7085 114.265 21.9045 113.769 21.9045C113.665 21.9045 113.557 21.8965 113.445 21.8805L113.349 21.8445V20.8965L113.433 20.9205C113.513 20.9365 113.597 20.9445 113.685 20.9445C113.813 20.9445 113.917 20.9085 113.997 20.8365C114.085 20.7565 114.153 20.6325 114.201 20.4645C114.257 20.2965 114.297 20.1405 114.321 19.9965C114.345 19.8445 114.373 19.6325 114.405 19.3605C114.437 19.0725 114.485 18.2565 114.549 16.9125L114.585 15.5685H118.725V21.8445H117.729V16.4085H115.473C115.401 18.1365 115.349 19.1405 115.317 19.4205ZM122.826 16.3605C121.93 16.3605 121.482 16.7405 121.482 17.5005V17.5365C121.482 17.8965 121.586 18.1685 121.794 18.3525C122.002 18.5365 122.346 18.6285 122.826 18.6285H124.002V16.3605H122.826ZM121.17 21.8445H120.03L121.938 19.2165C120.97 19.0165 120.486 18.4565 120.486 17.5365V17.5005C120.486 16.8445 120.71 16.3605 121.158 16.0485C121.606 15.7285 122.182 15.5685 122.886 15.5685H124.998V21.8445H124.002V19.3845H122.922L121.17 21.8445ZM58.494 30.9745H61.41V41.5585H66.648V43.8445H58.494V30.9745ZM70.9728 32.7565C70.6848 33.0205 70.3308 33.1525 69.9108 33.1525C69.4908 33.1525 69.1368 33.0205 68.8488 32.7565C68.5728 32.4805 68.4348 32.1385 68.4348 31.7305C68.4348 31.3225 68.5728 30.9865 68.8488 30.7225C69.1368 30.4465 69.4908 30.3085 69.9108 30.3085C70.3308 30.3085 70.6848 30.4465 70.9728 30.7225C71.2608 30.9865 71.4048 31.3225 71.4048 31.7305C71.4048 32.1385 71.2608 32.4805 70.9728 32.7565ZM68.6328 34.4305H71.2248V43.8445H68.6328V34.4305ZM73.8342 34.4305H76.4442V35.9245C77.0322 34.7845 78.0522 34.2145 79.5042 34.2145C80.4522 34.2145 81.2142 34.5025 81.7902 35.0785C82.3782 35.7025 82.6722 36.6265 82.6722 37.8505V43.8445H80.0622V38.2285C80.0622 37.5805 79.9302 37.1065 79.6662 36.8065C79.4022 36.4945 78.9822 36.3385 78.4062 36.3385C77.8182 36.3385 77.3442 36.5185 76.9842 36.8785C76.6242 37.2265 76.4442 37.7365 76.4442 38.4085V43.8445H73.8342V34.4305ZM88.2514 44.0425C87.2914 44.0425 86.5294 43.7605 85.9654 43.1965C85.3534 42.5845 85.0474 41.6845 85.0474 40.4965V34.4305H87.6394V40.1365C87.6394 41.3965 88.1854 42.0265 89.2774 42.0265C89.8534 42.0265 90.3214 41.8525 90.6814 41.5045C91.0534 41.1445 91.2394 40.6285 91.2394 39.9565V34.4305H93.8314V43.8445H91.2394V42.3685C90.6754 43.4845 89.6794 44.0425 88.2514 44.0425ZM98.7278 39.0385L95.7218 34.4305H98.7098L100.474 37.2565L102.202 34.4305H104.902L101.896 38.8405L105.208 43.8445H102.202L100.222 40.6765L98.1878 43.8445H95.5058L98.7278 39.0385ZM114.525 40.5685C115.185 41.3365 116.049 41.7205 117.117 41.7205C118.185 41.7205 119.049 41.3305 119.709 40.5505C120.345 39.7825 120.663 38.7505 120.663 37.4545V37.3105C120.663 36.0625 120.351 35.0485 119.727 34.2685C119.067 33.4885 118.185 33.0985 117.081 33.0985C115.989 33.0985 115.113 33.4765 114.453 34.2325C113.817 34.9765 113.499 36.0085 113.499 37.3285V37.4725C113.499 38.7805 113.841 39.8125 114.525 40.5685ZM121.887 42.1705C120.663 43.4185 119.055 44.0425 117.063 44.0425C115.071 44.0425 113.469 43.4185 112.257 42.1705C111.057 40.9705 110.457 39.4105 110.457 37.4905V37.3465C110.457 35.4025 111.087 33.8305 112.347 32.6305C113.595 31.4065 115.173 30.7945 117.081 30.7945C119.037 30.7945 120.627 31.3885 121.851 32.5765C123.087 33.8125 123.705 35.3785 123.705 37.2745V37.4185C123.705 39.3505 123.099 40.9345 121.887 42.1705ZM130.353 44.0425C128.637 44.0425 127.329 43.6585 126.429 42.8905C125.577 42.1585 125.115 41.1325 125.043 39.8125H127.833C127.917 40.4965 128.115 40.9885 128.427 41.2885C128.847 41.7085 129.489 41.9185 130.353 41.9185C131.001 41.9185 131.517 41.7625 131.901 41.4505C132.285 41.1265 132.477 40.7125 132.477 40.2085C132.477 39.7165 132.309 39.3445 131.973 39.0925C131.601 38.8645 130.959 38.6785 130.047 38.5345C128.355 38.3185 127.173 37.9225 126.501 37.3465C125.769 36.7825 125.403 35.8765 125.403 34.6285C125.403 33.5365 125.829 32.6185 126.681 31.8745C127.557 31.1545 128.691 30.7945 130.083 30.7945C131.547 30.7945 132.687 31.1185 133.503 31.7665C134.319 32.4145 134.787 33.3745 134.907 34.6465H132.225C132.069 33.5065 131.355 32.9365 130.083 32.9365C129.459 32.9365 128.979 33.0685 128.643 33.3325C128.319 33.5965 128.157 33.9505 128.157 34.3945C128.157 34.8865 128.313 35.2345 128.625 35.4385C128.949 35.6905 129.591 35.8885 130.551 36.0325C132.183 36.2365 133.359 36.6025 134.079 37.1305C134.871 37.7305 135.267 38.6665 135.267 39.9385C135.267 41.1265 134.829 42.0925 133.953 42.8365C133.029 43.6405 131.829 44.0425 130.353 44.0425Z" fill="#F5F5F7"/>
<path d="M46.4808 37.3345C45.544 36.9651 45.1412 36.4752 45.18 35.744C45.22 34.8894 44.716 34.2637 44.4768 34.0162C44.6212 33.4852 45.0436 31.6469 44.4768 30.0503C43.8676 28.3417 42.0084 25.7319 40.09 23.1664C39.304 22.1108 39.268 20.9672 39.224 19.6395C39.184 18.3747 39.1364 16.9408 38.4032 15.3473C37.6072 13.6118 36.0076 12.6167 34.0156 12.6167C32.8308 12.6167 31.6156 12.973 30.678 13.5941C28.7612 14.8667 29.0148 17.6416 29.184 19.4779C29.2068 19.7292 29.2284 19.9666 29.2412 20.1706C29.3528 21.9688 29.2512 22.9166 29.1184 23.2048C29.0324 23.393 28.6092 23.9287 28.1616 24.4959C27.6972 25.0816 27.172 25.7465 26.744 26.3661C26.2304 27.1119 25.816 28.2517 25.4152 29.3534C25.122 30.1615 24.8452 30.9219 24.5752 31.3772C24.2034 32.005 24.1029 32.7482 24.2952 33.4467C24.102 33.576 23.8224 33.8315 23.5864 34.3102C23.3012 34.8959 22.7224 35.2103 21.5192 35.4331C20.9664 35.5416 20.5852 35.7656 20.386 36.0977C20.0956 36.5814 20.2536 37.189 20.398 37.6042C20.6108 38.2146 20.478 38.6009 20.238 39.3024C20.1824 39.4644 20.118 39.6488 20.0556 39.85C19.9548 40.169 19.9912 40.4592 20.1632 40.712C20.6176 41.3804 21.9436 41.6159 23.3084 41.771C24.1236 41.8641 25.0156 42.1778 25.8784 42.4814C26.7236 42.7785 27.5984 43.0855 28.3924 43.179C28.5104 43.1935 28.6291 43.2008 28.748 43.201C29.948 43.201 30.4896 42.4352 30.6612 42.1204C31.0924 42.0361 32.5784 41.7652 34.11 41.7287C35.6416 41.6921 37.1192 41.9773 37.5384 42.0677C37.67 42.3101 38.0184 42.8647 38.5712 43.1502C38.8756 43.3103 39.2992 43.4019 39.7312 43.4019C40.1944 43.4019 41.076 43.2964 41.7736 42.5903C42.4712 41.8841 44.2076 40.9741 45.4772 40.3141C45.7604 40.1667 46.0256 40.0286 46.258 39.9039C46.9712 39.5237 47.3604 38.9803 47.3256 38.4131C47.2976 37.9421 46.9736 37.5288 46.4808 37.3345ZM30.6936 37.1979C30.6048 36.5964 29.8004 35.9999 28.8692 35.3092C28.1072 34.7439 27.244 34.104 27.006 33.5618C26.5144 32.4431 26.902 30.4763 27.5776 29.4635C27.9116 28.9563 28.184 28.1874 28.448 27.4436C28.7328 26.6405 29.0272 25.8104 29.3564 25.4468C29.8764 24.8792 30.36 23.7751 30.4456 22.9051C30.934 23.3538 31.6916 23.9229 32.3912 23.9229C32.4968 23.9233 32.602 23.9096 32.7036 23.8821C33.1836 23.749 33.8868 23.3576 34.568 22.979C35.1552 22.6526 35.8792 22.2501 36.152 22.2136C36.6192 22.8589 39.334 28.64 39.6112 30.4948C39.7672 31.5463 39.7236 32.6164 39.4824 33.653C39.3753 33.6386 39.2674 33.6311 39.1592 33.6306C38.4028 33.6306 38.2028 34.0274 38.1508 34.2648C38.0164 34.8805 38.0024 36.8504 38.0008 37.2929C37.7276 37.6273 36.3448 39.2008 34.3608 39.4841C33.6178 39.592 32.8678 39.6488 32.1164 39.6541C31.7463 39.6582 31.3764 39.6363 31.0096 39.5887L30.012 38.4905C30.404 38.3038 30.7976 37.9094 30.6936 37.1979ZM31.9596 19.0916C31.9284 19.1046 31.8976 19.1185 31.8676 19.1331C31.8646 19.0671 31.8576 19.0013 31.8468 18.9361C31.738 18.3331 31.3224 17.8952 30.8584 17.8952C30.8228 17.8953 30.7872 17.898 30.752 17.9033C30.476 17.9475 30.2596 18.1468 30.1412 18.4293C30.2452 17.8094 30.6104 17.3518 31.0436 17.3518C31.5524 17.3518 31.9824 18.0114 31.9824 18.7922C31.9821 18.8924 31.9745 18.9924 31.9596 19.0916ZM35.9136 19.5564C35.961 19.4083 35.9847 19.2542 35.984 19.0993C35.984 18.3912 35.5172 17.8367 34.9212 17.8367C34.3388 17.8367 33.8648 18.4027 33.8648 19.0993C33.8648 19.1466 33.8672 19.1943 33.872 19.2416L33.784 19.2085C33.7167 19.0126 33.6826 18.8076 33.6828 18.6013C33.6828 17.7547 34.2452 17.0659 34.9368 17.0659C35.6284 17.0659 36.1904 17.7547 36.1904 18.6013C36.1926 18.9383 36.0967 19.2691 35.9136 19.5564ZM35.4036 21.2042C35.3936 21.2469 35.3728 21.2662 35.1384 21.3835C35.0184 21.4424 34.8724 21.5163 34.6884 21.6244L34.5652 21.696C34.07 21.985 32.9108 22.6611 32.5964 22.7007C32.3828 22.7284 32.2504 22.6484 31.9532 22.4541C31.886 22.4102 31.8148 22.3636 31.7388 22.3167C31.2028 21.9784 30.8588 21.6059 30.8188 21.4605C30.9936 21.3304 31.4268 21.0052 31.6484 20.8128C32.0984 20.4103 32.5512 20.1398 32.7752 20.1398C32.7865 20.1397 32.7977 20.1406 32.8088 20.1425C33.0724 20.1875 33.722 20.4369 34.1964 20.6189C34.4156 20.7032 34.6048 20.7759 34.738 20.8217C35.1584 20.9606 35.3772 21.138 35.4036 21.2042ZM39.1752 40.0155C39.412 38.988 39.6848 37.5912 39.6408 36.7661C39.6304 36.5787 39.6132 36.3748 39.5968 36.1777C39.5656 35.8095 39.5192 35.2619 39.5668 35.1002C39.5771 35.0959 39.5877 35.0921 39.5984 35.0891C39.5984 35.5605 39.7068 36.5002 40.488 36.8281C40.7382 36.9291 41.0075 36.9793 41.2788 36.9754C42.0616 36.9754 42.9296 36.606 43.2856 36.2639C43.4804 36.0692 43.6511 35.8534 43.7944 35.6209C43.8267 35.7188 43.8386 35.8218 43.8292 35.9241C43.7828 36.6191 44.134 37.5404 44.802 37.8809L44.8992 37.9298C45.1392 38.0502 45.7692 38.3692 45.7792 38.5209C45.7701 38.5401 45.7564 38.557 45.7392 38.5701C45.5792 38.7094 45.0236 38.983 44.4848 39.2478C43.5288 39.7173 42.4448 40.2483 41.9588 40.742C41.2736 41.4347 40.4988 41.9015 40.0308 41.9015C39.979 41.9021 39.9273 41.8951 39.8776 41.8807C39.3688 41.7271 38.9504 41.0218 39.1752 40.0155ZM21.852 37.3941C21.8004 37.1605 21.7592 36.9766 21.8032 36.798C21.8352 36.6657 22.5136 36.5241 22.8032 36.4636C23.2104 36.3786 23.6316 36.2905 23.9072 36.1296C24.28 35.9126 24.4816 35.5139 24.6596 35.1591C24.7884 34.9036 24.9216 34.6392 25.0796 34.5527C25.0945 34.5448 25.1114 34.541 25.1284 34.5419C25.4248 34.5419 26.0484 35.1414 26.406 35.6786C26.4968 35.8137 26.6656 36.085 26.8604 36.399C27.4432 37.3376 28.2416 38.6228 28.6604 39.0542C29.036 39.4413 29.644 40.186 29.4944 40.8244C29.384 41.3196 28.8008 41.7225 28.664 41.8118C28.6034 41.8237 28.5415 41.8292 28.4796 41.8283C27.6796 41.8283 26.102 41.1896 25.2532 40.8463L25.1276 40.7955C24.6536 40.6031 23.88 40.4842 23.1316 40.3676C22.5364 40.2748 21.7212 40.1479 21.586 40.0332C21.4768 39.915 21.6036 39.5306 21.7156 39.1916C21.8044 38.9437 21.8745 38.69 21.9252 38.4324C21.9892 38.0118 21.9132 37.6681 21.852 37.3941Z" fill="#F5F5F7"/>
</svg>
