<svg width="185" height="41" viewBox="0 0 185 41" fill="none" xmlns="http://www.w3.org/2000/svg">
<path d="M62.992 11.1696H69.136C71.216 11.1696 72.824 11.5936 73.96 12.4416C75.16 13.3376 75.76 14.6496 75.76 16.3776V16.4736C75.76 17.7216 75.424 18.7296 74.752 19.4976C74.128 20.2176 73.288 20.7296 72.232 21.0336L76.768 28.3296H72.64L68.536 21.7056H66.856V28.3296H62.992V11.1696ZM69.04 19.0656C70.992 19.0656 71.968 18.2416 71.968 16.5936V16.4976C71.968 15.6496 71.728 15.0496 71.248 14.6976C70.768 14.3296 70.032 14.1456 69.04 14.1456H66.856V19.0656H69.04ZM84.4735 25.9536C85.4495 25.9536 86.2015 25.6176 86.7295 24.9456C87.2735 24.2736 87.5455 23.3376 87.5455 22.1376V21.9696C87.5455 20.7696 87.2735 19.8336 86.7295 19.1616C86.2015 18.4736 85.4495 18.1296 84.4735 18.1296C83.5135 18.1296 82.7615 18.4656 82.2175 19.1376C81.6735 19.7936 81.4015 20.7216 81.4015 21.9216V22.1136C81.4015 23.3296 81.6655 24.2736 82.1935 24.9456C82.7215 25.6176 83.4815 25.9536 84.4735 25.9536ZM84.4495 28.5936C82.5295 28.5936 80.9615 28.0096 79.7455 26.8416C78.4815 25.6736 77.8495 24.1216 77.8495 22.1856V21.9936C77.8495 20.0576 78.4815 18.4816 79.7455 17.2656C80.9775 16.0816 82.5535 15.4896 84.4735 15.4896C86.4095 15.4896 87.9855 16.0736 89.2015 17.2416C90.4495 18.4576 91.0735 20.0176 91.0735 21.9216V22.1136C91.0735 24.0496 90.4415 25.6256 89.1775 26.8416C87.9615 28.0096 86.3855 28.5936 84.4495 28.5936ZM93.6878 10.0896H97.1678V21.0816L101.2 15.7776H104.896L100.336 21.4896L105.256 28.3296H101.32L97.1678 22.4016V28.3296H93.6878V10.0896ZM112.48 28.5936C110.528 28.5936 108.968 28.0256 107.8 26.8896C106.552 25.7376 105.928 24.1776 105.928 22.2096V22.0176C105.928 20.0656 106.552 18.4816 107.8 17.2656C109.016 16.0816 110.544 15.4896 112.384 15.4896C114.128 15.4896 115.552 15.9936 116.656 17.0016C117.888 18.1216 118.504 19.7456 118.504 21.8736V22.8336H109.456C109.504 23.8896 109.792 24.7056 110.32 25.2816C110.864 25.8416 111.616 26.1216 112.576 26.1216C114.08 26.1216 114.952 25.5376 115.192 24.3696H118.48C118.272 25.7296 117.648 26.7776 116.608 27.5136C115.584 28.2336 114.208 28.5936 112.48 28.5936ZM115.12 20.6976C115.008 18.8256 114.096 17.8896 112.384 17.8896C111.6 17.8896 110.952 18.1376 110.44 18.6336C109.944 19.1136 109.632 19.8016 109.504 20.6976H115.12ZM125.647 28.5696C122.943 28.5696 121.591 27.2496 121.591 24.6096V18.2496H119.983V15.7776H121.591V13.0656H125.047V15.7776H127.687V18.2496H125.047V24.2976C125.047 25.2896 125.511 25.7856 126.439 25.7856C126.951 25.7856 127.391 25.7056 127.759 25.5456V28.2336C127.119 28.4576 126.415 28.5696 125.647 28.5696ZM134.631 11.1696H138.735L142.815 24.3456L146.895 11.1696H150.543L144.831 28.3296H140.367L134.631 11.1696ZM153.133 11.1696H159.061C161.189 11.1696 162.813 11.6336 163.933 12.5616C165.053 13.4736 165.613 14.8336 165.613 16.6416V16.7376C165.613 18.5136 165.029 19.8576 163.861 20.7696C162.741 21.6496 161.181 22.0896 159.181 22.0896H156.997V28.3296H153.133V11.1696ZM158.965 19.3776C160.901 19.3776 161.869 18.5056 161.869 16.7616V16.6656C161.869 14.9696 160.901 14.1216 158.965 14.1216H156.997V19.3776H158.965ZM168.437 11.1696H172.949L179.477 22.4736V11.1696H182.933V28.3296H179.045L171.893 16.1136V28.3296H168.437V11.1696Z" fill="#F5F5F7"/>
<ellipse cx="24" cy="17.7602" rx="18" ry="17.3167" fill="#F88308"/>
<path fill-rule="evenodd" clip-rule="evenodd" d="M45.7949 20.6463C44.33 30.8752 35.1908 38.8491 24 38.8491C12.8092 38.8491 3.66994 30.8752 2.20505 20.6463H0.185669C1.66196 32.0358 11.7611 40.8491 24 40.8491C36.2388 40.8491 46.338 32.0358 47.8143 20.6463H45.7949Z" fill="#F5F5F7"/>
<path d="M27.6625 18.6355H25.1166C24.3146 18.6347 23.5344 18.8851 22.8958 19.3482C22.2572 19.8113 21.7955 20.4616 21.5814 21.1993C21.3673 21.9369 21.4127 22.7212 21.7107 23.4319C22.0086 24.1426 22.5427 24.7403 23.2309 25.1334L27.1546 27.3805H34.2864L25.1228 22.1327H27.6687C29.6131 22.1327 31.4778 21.3956 32.8527 20.0835C34.2276 18.7714 35 16.9918 35 15.1363C35 13.2807 34.2276 11.5011 32.8527 10.189C31.4778 8.87693 29.6131 8.1398 27.6687 8.1398H18.499C17.0412 8.14188 15.6438 8.69544 14.613 9.67915C13.5822 10.6629 13.0022 11.9965 13 13.3876V27.3805H16.6667V13.3876C16.6672 12.924 16.8604 12.4796 17.2039 12.1517C17.5474 11.8239 18.0132 11.6395 18.499 11.639H27.6625C28.1512 11.628 28.6373 11.7103 29.0922 11.8811C29.547 12.052 29.9615 12.3079 30.3112 12.6338C30.6609 12.9597 30.9388 13.3491 31.1286 13.779C31.3183 14.209 31.416 14.6707 31.416 15.1372C31.416 15.6037 31.3183 16.0655 31.1286 16.4954C30.9388 16.9254 30.6609 17.3147 30.3112 17.6407C29.9615 17.9666 29.547 18.2225 29.0922 18.3934C28.6373 18.5642 28.1512 18.6465 27.6625 18.6355Z" fill="#F5F5F7"/>
</svg>
