<svg width="150" height="56" viewBox="0 0 150 56" fill="none" xmlns="http://www.w3.org/2000/svg">
<rect y="0.110168" width="150" height="55.7981" rx="7" fill="#151C2A"/>
<path d="M66.74 21.9525C65.5 21.9525 64.52 21.5605 63.8 20.7765C63.088 19.9925 62.732 18.9365 62.732 17.6085V17.5125C62.732 16.2405 63.112 15.1925 63.872 14.3685C64.632 13.5445 65.596 13.1325 66.764 13.1325C67.7 13.1325 68.488 13.3765 69.128 13.8645C69.776 14.3525 70.148 15.0445 70.244 15.9405H69.212C69.092 15.2765 68.836 14.7805 68.444 14.4525C68.06 14.1245 67.504 13.9605 66.776 13.9605C65.888 13.9605 65.172 14.2845 64.628 14.9325C64.084 15.5725 63.812 16.4285 63.812 17.5005V17.5965C63.812 18.6925 64.072 19.5525 64.592 20.1765C65.12 20.7925 65.844 21.1005 66.764 21.1005C67.476 21.1005 68.056 20.9245 68.504 20.5725C68.96 20.2125 69.244 19.6885 69.356 19.0005H70.328C70.184 19.9685 69.796 20.7045 69.164 21.2085C68.532 21.7045 67.724 21.9525 66.74 21.9525ZM72.7696 18.6405V21.8445H71.7736V15.5685H72.7696V18.4965L75.3736 15.5685H76.5376L73.8496 18.5205L76.7656 21.8445H75.5536L72.7696 18.6405ZM79.5465 21.9525C78.9305 21.9525 78.4265 21.8005 78.0345 21.4965C77.6505 21.1845 77.4585 20.7205 77.4585 20.1045C77.4585 19.7605 77.5425 19.4605 77.7105 19.2045C77.8865 18.9405 78.1265 18.7365 78.4305 18.5925C78.7345 18.4405 79.0665 18.3325 79.4265 18.2685C79.7865 18.1965 80.1785 18.1605 80.6025 18.1605H81.5025V17.7045C81.5025 17.2005 81.3985 16.8405 81.1905 16.6245C80.9825 16.4005 80.6385 16.2885 80.1585 16.2885C79.2945 16.2885 78.8145 16.6645 78.7185 17.4165H77.7225C77.7865 16.7445 78.0465 16.2525 78.5025 15.9405C78.9665 15.6205 79.5345 15.4605 80.2065 15.4605C81.7345 15.4605 82.4985 16.2085 82.4985 17.7045V21.8445H81.5025V21.0525C81.0225 21.6525 80.3705 21.9525 79.5465 21.9525ZM79.6425 21.1605C80.1865 21.1605 80.6305 21.0285 80.9745 20.7645C81.3265 20.4925 81.5025 20.1205 81.5025 19.6485V18.8685H80.6385C79.1825 18.8685 78.4545 19.2805 78.4545 20.1045C78.4545 20.8085 78.8505 21.1605 79.6425 21.1605ZM87.8086 21.8445V18.9165C87.3766 19.3805 86.7766 19.6125 86.0086 19.6125C85.3926 19.6125 84.8886 19.4165 84.4966 19.0245C84.1046 18.6245 83.9086 18.0165 83.9086 17.2005V15.5685H84.9046V17.1525C84.9046 18.2165 85.3606 18.7485 86.2726 18.7485C86.9526 18.7485 87.4646 18.5165 87.8086 18.0525V15.5685H88.8046V21.8445H87.8086ZM92.4606 21.9525C91.8446 21.9525 91.3406 21.8005 90.9486 21.4965C90.5646 21.1845 90.3726 20.7205 90.3726 20.1045C90.3726 19.7605 90.4566 19.4605 90.6246 19.2045C90.8006 18.9405 91.0406 18.7365 91.3446 18.5925C91.6486 18.4405 91.9806 18.3325 92.3406 18.2685C92.7006 18.1965 93.0926 18.1605 93.5166 18.1605H94.4166V17.7045C94.4166 17.2005 94.3126 16.8405 94.1046 16.6245C93.8966 16.4005 93.5526 16.2885 93.0726 16.2885C92.2086 16.2885 91.7286 16.6645 91.6326 17.4165H90.6366C90.7006 16.7445 90.9606 16.2525 91.4166 15.9405C91.8806 15.6205 92.4486 15.4605 93.1206 15.4605C94.6486 15.4605 95.4126 16.2085 95.4126 17.7045V21.8445H94.4166V21.0525C93.9366 21.6525 93.2846 21.9525 92.4606 21.9525ZM92.5566 21.1605C93.1006 21.1605 93.5446 21.0285 93.8886 20.7645C94.2406 20.4925 94.4166 20.1205 94.4166 19.6485V18.8685H93.5526C92.0966 18.8685 91.3686 19.2805 91.3686 20.1045C91.3686 20.8085 91.7646 21.1605 92.5566 21.1605ZM101.525 16.4085H99.4973V21.8445H98.5013V16.4085H96.4733V15.5685H101.525V16.4085ZM102.899 15.5685H103.895V17.7645H105.011C105.715 17.7645 106.291 17.9365 106.739 18.2805C107.187 18.6245 107.411 19.1365 107.411 19.8165V19.8525C107.411 20.5405 107.187 21.0445 106.739 21.3645C106.299 21.6845 105.723 21.8445 105.011 21.8445H102.899V15.5685ZM105.071 21.0645C105.551 21.0645 105.895 20.9645 106.103 20.7645C106.311 20.5565 106.415 20.2525 106.415 19.8525V19.8165C106.415 19.3845 106.307 19.0685 106.091 18.8685C105.883 18.6605 105.543 18.5565 105.071 18.5565H103.895V21.0645H105.071ZM113.228 19.4205C113.14 20.1565 113.004 20.6845 112.82 21.0045H115.76V16.3845H113.456C113.416 17.3605 113.34 18.3725 113.228 19.4205ZM111.98 23.3685H111.176V21.0045H111.62C111.844 20.9485 112 20.7885 112.088 20.5245C112.176 20.2525 112.252 19.8645 112.316 19.3605C112.388 18.7125 112.456 17.8965 112.52 16.9125C112.552 16.4725 112.576 16.0245 112.592 15.5685H116.732V21.0045H117.692V23.3685H116.888L116.816 21.8445H112.052L111.98 23.3685ZM120.317 19.4205C120.245 20.2845 120.093 20.9165 119.861 21.3165C119.629 21.7085 119.265 21.9045 118.769 21.9045C118.665 21.9045 118.557 21.8965 118.445 21.8805L118.349 21.8445V20.8965L118.433 20.9205C118.513 20.9365 118.597 20.9445 118.685 20.9445C118.813 20.9445 118.917 20.9085 118.997 20.8365C119.085 20.7565 119.153 20.6325 119.201 20.4645C119.257 20.2965 119.297 20.1405 119.321 19.9965C119.345 19.8445 119.373 19.6325 119.405 19.3605C119.437 19.0725 119.485 18.2565 119.549 16.9125L119.585 15.5685H123.725V21.8445H122.729V16.4085H120.473C120.401 18.1365 120.349 19.1405 120.317 19.4205ZM127.826 16.3605C126.93 16.3605 126.482 16.7405 126.482 17.5005V17.5365C126.482 17.8965 126.586 18.1685 126.794 18.3525C127.002 18.5365 127.346 18.6285 127.826 18.6285H129.002V16.3605H127.826ZM126.17 21.8445H125.03L126.938 19.2165C125.97 19.0165 125.486 18.4565 125.486 17.5365V17.5005C125.486 16.8445 125.71 16.3605 126.158 16.0485C126.606 15.7285 127.182 15.5685 127.886 15.5685H129.998V21.8445H129.002V19.3845H127.922L126.17 21.8445ZM63.517 30.7765H67.4282L70.4805 38.9097L73.4962 30.7765H77.3343V43.8445H74.3918V34.6694L70.7729 43.8445H69.8042L66.1671 34.6694V43.8445H63.517V30.7765ZM82.6341 44.0455C81.708 44.0455 80.9587 43.8201 80.386 43.3693C79.7524 42.8697 79.4356 42.1447 79.4356 41.1943C79.4356 40.1342 79.8986 39.3422 80.8247 38.8183C81.6532 38.3553 82.8473 38.1238 84.4069 38.1238H85.4853V37.74C85.4853 37.1307 85.3695 36.686 85.138 36.4057C84.9187 36.1255 84.5166 35.9854 83.9317 35.9854C82.9935 35.9854 82.4513 36.4362 82.3051 37.3379H79.8012C79.8743 36.2656 80.319 35.4371 81.1354 34.8522C81.8786 34.3283 82.8656 34.0663 84.0962 34.0663C85.3269 34.0663 86.2895 34.3344 86.984 34.8705C87.7272 35.4553 88.0989 36.3692 88.0989 37.612V43.8445H85.5218V42.693C84.876 43.5947 83.9135 44.0455 82.6341 44.0455ZM83.42 42.1995C84.017 42.1995 84.5105 42.0472 84.9004 41.7426C85.2903 41.438 85.4853 41.0237 85.4853 40.4998V39.6956H84.4618C83.6576 39.6956 83.0484 39.7992 82.6341 40.0063C82.232 40.2134 82.0309 40.5607 82.0309 41.0481C82.0309 41.8157 82.494 42.1995 83.42 42.1995ZM94.9193 44.0455C93.4815 44.0455 92.3118 43.6251 91.4101 42.7844C90.4719 41.9071 90.0028 40.7069 90.0028 39.1838V39.0376C90.0028 37.5389 90.4841 36.3205 91.4467 35.3822C92.3605 34.5049 93.5242 34.0663 94.9376 34.0663C96.1682 34.0663 97.1674 34.3405 97.935 34.8888C98.8123 35.5224 99.3119 36.4849 99.4337 37.7765H96.9298C96.7714 36.6921 96.1256 36.1499 94.9924 36.1499C94.2857 36.1499 93.7252 36.3997 93.3109 36.8992C92.9088 37.3988 92.7078 38.0994 92.7078 39.0011V39.1473C92.7078 40.0977 92.9088 40.8227 93.3109 41.3222C93.7252 41.8096 94.304 42.0533 95.0472 42.0533C95.6077 42.0533 96.0708 41.8949 96.4363 41.5781C96.814 41.2613 97.0333 40.8044 97.0943 40.2073H99.4885C99.4154 41.3893 98.9829 42.3092 98.1909 42.9672C97.3501 43.6861 96.2596 44.0455 94.9193 44.0455ZM109.112 40.5181C109.782 41.2979 110.659 41.6878 111.744 41.6878C112.828 41.6878 113.705 41.2918 114.376 40.4998C115.021 39.72 115.344 38.6721 115.344 37.3561V37.2099C115.344 35.9427 115.027 34.9131 114.394 34.1211C113.724 33.3291 112.828 32.9331 111.707 32.9331C110.598 32.9331 109.709 33.3169 109.039 34.0846C108.393 34.84 108.07 35.8879 108.07 37.2282V37.3744C108.07 38.7025 108.417 39.7504 109.112 40.5181ZM116.587 42.1447C115.344 43.4119 113.711 44.0455 111.689 44.0455C109.666 44.0455 108.04 43.4119 106.809 42.1447C105.59 40.9262 104.981 39.3422 104.981 37.3927V37.2465C104.981 35.2726 105.621 33.6764 106.9 32.4579C108.167 31.2151 109.77 30.5937 111.707 30.5937C113.693 30.5937 115.308 31.1968 116.55 32.4031C117.805 33.6581 118.433 35.2482 118.433 37.1734V37.3196C118.433 39.2813 117.818 40.8897 116.587 42.1447ZM125.184 44.0455C123.441 44.0455 122.113 43.6556 121.199 42.8758C120.334 42.1325 119.865 41.0907 119.792 39.7504H122.625C122.71 40.4449 122.911 40.9445 123.228 41.2491C123.655 41.6756 124.306 41.8888 125.184 41.8888C125.842 41.8888 126.366 41.7304 126.756 41.4136C127.145 41.0846 127.34 40.6643 127.34 40.1525C127.34 39.6529 127.17 39.2752 126.829 39.0193C126.451 38.7878 125.799 38.599 124.873 38.4528C123.155 38.2334 121.955 37.8313 121.272 37.2465C120.529 36.6738 120.158 35.7539 120.158 34.4867C120.158 33.3779 120.59 32.4457 121.455 31.6903C122.345 30.9592 123.496 30.5937 124.91 30.5937C126.396 30.5937 127.554 30.9227 128.382 31.5806C129.211 32.2386 129.686 33.2134 129.808 34.5049H127.085C126.926 33.3474 126.201 32.7686 124.91 32.7686C124.276 32.7686 123.789 32.9027 123.447 33.1707C123.118 33.4388 122.954 33.7982 122.954 34.2491C122.954 34.7486 123.112 35.102 123.429 35.3091C123.758 35.565 124.41 35.7661 125.385 35.9123C127.042 36.1194 128.236 36.491 128.967 37.0272C129.771 37.6364 130.173 38.5868 130.173 39.8784C130.173 41.0846 129.729 42.0655 128.839 42.8209C127.901 43.6373 126.682 44.0455 125.184 44.0455Z" fill="#F5F5F7"/>
<path fill-rule="evenodd" clip-rule="evenodd" d="M44.9925 12.6167H27.0075C25.149 12.6167 23.3666 13.3269 22.0524 14.5912C20.7383 15.8555 20 17.5702 20 19.3581V36.6604C20 38.4483 20.7383 40.163 22.0524 41.4273C23.3666 42.6916 25.149 43.4019 27.0075 43.4019H44.9925C46.851 43.4019 48.6334 42.6916 49.9475 41.4273C51.2617 40.163 52 38.4483 52 36.6604V19.3581C52 17.5702 51.2617 15.8555 49.9475 14.5912C48.6334 13.3269 46.851 12.6167 44.9925 12.6167ZM29.1637 36.7878L30.25 34.9612C30.3632 34.8073 30.4255 34.6242 30.4288 34.4357C30.3125 33.6336 28.7087 33.4652 28.7087 33.4652C28.0262 33.4039 27.685 33.7334 27.5475 33.9246L27.47 34.0533L26.6638 35.3965C26.4963 35.7138 26.4615 36.0808 26.5667 36.422C26.6718 36.7631 26.9089 37.0526 27.2291 37.2308C27.5493 37.409 27.9282 37.4624 28.2881 37.38C28.648 37.2976 28.9613 37.0857 29.1637 36.7878ZM42.3563 30.3049H45.7687L45.7738 30.3097C46.1573 30.3097 46.5252 30.4563 46.7964 30.7172C47.0676 30.9782 47.22 31.3321 47.22 31.7011C47.22 32.0701 47.0676 32.424 46.7964 32.6849C46.5252 32.9458 46.1573 33.0924 45.7738 33.0924H44.05C43.79 33.0924 43.8325 33.2319 43.8575 33.2836L45.125 35.3965C45.2326 35.5548 45.3055 35.7325 45.3393 35.9188C45.373 36.1051 45.367 36.296 45.3215 36.48C45.276 36.664 45.192 36.8371 45.0746 36.9888C44.9572 37.1405 44.8089 37.2675 44.6387 37.3622C44.4686 37.4569 44.2801 37.5173 44.0849 37.5396C43.8897 37.5618 43.6919 37.5456 43.5034 37.4918C43.3149 37.4381 43.1399 37.3479 42.9888 37.2269C42.8378 37.1059 42.714 36.9565 42.625 36.7878L37.5513 28.3219C37.28 27.8096 36.5037 26.0984 37.1838 24.594C37.1838 24.594 37.7537 23.2436 38.1125 23.7715L38.3325 24.0733L41.9813 30.1642C42.0306 30.2109 42.0892 30.2475 42.1537 30.2717C42.2182 30.2959 42.2871 30.3072 42.3563 30.3049ZM38.6213 33.0876C39.3263 33.0876 39.1437 32.1965 39.1437 32.1965H39.1462C38.875 30.3687 36.8237 30.335 36.8237 30.335V30.3025H33.3038C33.1113 30.2857 33.12 30.1919 33.145 30.133L39.035 20.319C39.1426 20.1607 39.2155 19.983 39.2493 19.7967C39.283 19.6104 39.277 19.4194 39.2315 19.2355C39.186 19.0515 39.102 18.8784 38.9846 18.7267C38.8672 18.575 38.7189 18.4479 38.5487 18.3532C38.3786 18.2585 38.1901 18.1982 37.9949 18.1759C37.7997 18.1536 37.6019 18.1699 37.4134 18.2236C37.2249 18.2774 37.0499 18.3675 36.8988 18.4886C36.7478 18.6096 36.624 18.759 36.535 18.9276L35.8875 20.0099L35.24 18.9276C35.151 18.759 35.0272 18.6096 34.8762 18.4886C34.7251 18.3675 34.5501 18.2774 34.3616 18.2236C34.1731 18.1699 33.9753 18.1536 33.7801 18.1759C33.5849 18.1982 33.3964 18.2585 33.2263 18.3532C33.0561 18.4479 32.9078 18.575 32.7904 18.7267C32.673 18.8784 32.589 19.0515 32.5435 19.2355C32.498 19.4194 32.492 19.6104 32.5257 19.7967C32.5595 19.983 32.6324 20.1607 32.74 20.319L34.1375 22.6483C34.161 22.6924 34.1732 22.7413 34.1732 22.7908C34.1732 22.8404 34.161 22.8892 34.1375 22.9333L29.8975 29.985C29.8975 29.985 29.7738 30.2761 29.25 30.3049H26.0113C25.6277 30.3049 25.2598 30.4515 24.9886 30.7124C24.7174 30.9734 24.565 31.3273 24.565 31.6963C24.565 32.0653 24.7174 32.4192 24.9886 32.6801C25.2598 32.941 25.6277 33.0876 26.0113 33.0876H38.6213Z" fill="#F5F5F7"/>
</svg>
