<svg width="28" height="24" viewBox="0 0 28 24" fill="none" xmlns="http://www.w3.org/2000/svg">
<g clip-path="url(#clip0_1_11)">
<path d="M13.6815 0.245704C6.28582 0.333125 0.371145 5.69952 0.469548 12.2314C0.568534 18.7605 6.64421 23.9858 14.0396 23.8989C21.4338 23.8109 27.3496 18.4445 27.2512 11.9131C27.1523 5.38351 21.0763 0.158539 13.6815 0.245704ZM13.6419 19.2717L13.5679 19.2707C12.429 19.2408 11.6261 18.4998 11.6584 17.5089C11.6901 16.5349 12.5126 15.8278 13.6139 15.8278L13.68 15.8288C14.8507 15.8594 15.6446 16.593 15.6117 17.6125C15.5791 18.5893 14.7695 19.2717 13.6419 19.2717ZM18.4325 10.8744C18.1647 11.2104 17.5757 11.6277 16.8336 12.1384L16.0164 12.6367C15.5677 12.9447 15.297 13.2345 15.1954 13.5196C15.1153 13.7441 15.076 13.8035 15.069 14.2601L15.0679 14.3761H11.9475L11.9565 14.1429C11.9947 13.1843 12.0214 12.6205 12.4712 12.1546C13.177 11.4228 14.7337 10.5375 14.7997 10.5C15.0227 10.3516 15.2108 10.1827 15.3509 10.0022C15.6784 9.6034 15.8234 9.28946 15.8234 8.98091C15.8234 8.5528 15.6795 8.15683 15.3951 7.80432C15.1217 7.46415 14.6023 7.29187 13.8512 7.29187C13.1062 7.29187 12.5961 7.50066 12.291 7.92902C11.9772 8.36947 11.8185 8.83204 11.8185 9.30463V9.42213H8.60121L8.60703 9.29948C8.69 7.55902 9.39338 6.30581 10.6968 5.57456C11.5157 5.10891 12.5347 4.87287 13.7237 4.87287C15.2801 4.87287 16.594 5.20687 17.6284 5.86562C18.6765 6.53311 19.2081 7.5328 19.2081 8.83692C19.2081 9.56637 18.9472 10.2516 18.4325 10.8744Z" fill="#FF9900"/>
</g>
<defs>
<clipPath id="clip0_1_11">
<rect width="26.7843" height="23.6552" fill="white" transform="translate(0.468033 0.244629)"/>
</clipPath>
</defs>
</svg>
