<svg width="21" height="19" viewBox="0 0 21 19" fill="none" xmlns="http://www.w3.org/2000/svg">
<path d="M18.9062 15.1006C18.7449 15.3513 18.5108 15.5595 18.2282 15.7037C17.9455 15.8479 17.6244 15.923 17.2979 15.9213L3.69107 15.9213C3.36506 15.9214 3.04479 15.8456 2.76249 15.7016C2.48019 15.5576 2.24584 15.3504 2.08303 15.101C1.92022 14.8516 1.8347 14.5686 1.83508 14.2807C1.83547 13.9928 1.92174 13.7101 2.08521 13.4609L8.88865 3.08018H8.88805C9.05113 2.83143 9.28539 2.62491 9.56735 2.48135C9.8493 2.33778 10.169 2.26221 10.4945 2.26221C10.82 2.26221 11.1397 2.33778 11.4217 2.48135C11.7036 2.62491 11.9379 2.83143 12.101 3.08018L18.9038 13.4609C19.0691 13.7094 19.1565 13.9923 19.1569 14.2805C19.1574 14.5687 19.0708 14.8518 18.9062 15.1006Z" fill="#2D2D2D"/>
</svg>
