<svg width="42" height="41" viewBox="0 0 42 41" fill="none" xmlns="http://www.w3.org/2000/svg">
<path fill-rule="evenodd" clip-rule="evenodd" d="M29.0769 16.0221C29.0769 20.3135 25.4608 23.7924 21 23.7924C16.5392 23.7924 12.9231 20.3135 12.9231 16.0221C12.9231 11.7307 16.5392 8.25178 21 8.25178C25.4608 8.25178 29.0769 11.7307 29.0769 16.0221ZM25.8462 16.0221C25.8462 18.5969 23.6765 20.6843 21 20.6843C18.3235 20.6843 16.1538 18.5969 16.1538 16.0221C16.1538 13.4472 18.3235 11.3599 21 11.3599C23.6765 11.3599 25.8462 13.4472 25.8462 16.0221Z" fill="#F5F5F7"/>
<path fill-rule="evenodd" clip-rule="evenodd" d="M7.54124 36.1931C6.66994 35.4926 5.85857 34.7253 5.11561 33.8996C1.92831 30.357 0 25.7373 0 20.6843C0 9.52657 9.40202 0.481476 21 0.481476C32.598 0.481476 42 9.52657 42 20.6843C42 25.7373 40.0717 30.357 36.8844 33.8996C36.1414 34.7253 35.3301 35.4926 34.4588 36.1931C30.8143 39.1235 26.1212 40.887 21 40.887C15.8788 40.887 11.1857 39.1235 7.54124 36.1931ZM38.7692 20.6843C38.7692 24.6784 37.3453 28.3527 34.9592 31.2628C31.6775 27.636 26.5959 25.3464 21 25.3464C15.4041 25.3464 10.3225 27.636 7.04077 31.2628C4.65467 28.3527 3.23077 24.6784 3.23077 20.6843C3.23077 11.2431 11.1863 3.5896 21 3.5896C30.8137 3.5896 38.7692 11.2431 38.7692 20.6843ZM21 37.7789C16.5106 37.7789 12.4101 36.1772 9.28214 33.5355C11.901 30.4797 16.123 28.4546 21 28.4546C25.877 28.4546 30.099 30.4797 32.7179 33.5355C29.5899 36.1772 25.4894 37.7789 21 37.7789Z" fill="#F5F5F7"/>
</svg>
