<svg width="163" height="56" viewBox="0 0 163 56" fill="none" xmlns="http://www.w3.org/2000/svg">
<rect y="0.110168" width="163" height="55.7981" rx="7" fill="#151C2A"/>
<path d="M66.74 21.9525C65.5 21.9525 64.52 21.5605 63.8 20.7765C63.088 19.9925 62.732 18.9365 62.732 17.6085V17.5125C62.732 16.2405 63.112 15.1925 63.872 14.3685C64.632 13.5445 65.596 13.1325 66.764 13.1325C67.7 13.1325 68.488 13.3765 69.128 13.8645C69.776 14.3525 70.148 15.0445 70.244 15.9405H69.212C69.092 15.2765 68.836 14.7805 68.444 14.4525C68.06 14.1245 67.504 13.9605 66.776 13.9605C65.888 13.9605 65.172 14.2845 64.628 14.9325C64.084 15.5725 63.812 16.4285 63.812 17.5005V17.5965C63.812 18.6925 64.072 19.5525 64.592 20.1765C65.12 20.7925 65.844 21.1005 66.764 21.1005C67.476 21.1005 68.056 20.9245 68.504 20.5725C68.96 20.2125 69.244 19.6885 69.356 19.0005H70.328C70.184 19.9685 69.796 20.7045 69.164 21.2085C68.532 21.7045 67.724 21.9525 66.74 21.9525ZM72.7696 18.6405V21.8445H71.7736V15.5685H72.7696V18.4965L75.3736 15.5685H76.5376L73.8496 18.5205L76.7656 21.8445H75.5536L72.7696 18.6405ZM79.5465 21.9525C78.9305 21.9525 78.4265 21.8005 78.0345 21.4965C77.6505 21.1845 77.4585 20.7205 77.4585 20.1045C77.4585 19.7605 77.5425 19.4605 77.7105 19.2045C77.8865 18.9405 78.1265 18.7365 78.4305 18.5925C78.7345 18.4405 79.0665 18.3325 79.4265 18.2685C79.7865 18.1965 80.1785 18.1605 80.6025 18.1605H81.5025V17.7045C81.5025 17.2005 81.3985 16.8405 81.1905 16.6245C80.9825 16.4005 80.6385 16.2885 80.1585 16.2885C79.2945 16.2885 78.8145 16.6645 78.7185 17.4165H77.7225C77.7865 16.7445 78.0465 16.2525 78.5025 15.9405C78.9665 15.6205 79.5345 15.4605 80.2065 15.4605C81.7345 15.4605 82.4985 16.2085 82.4985 17.7045V21.8445H81.5025V21.0525C81.0225 21.6525 80.3705 21.9525 79.5465 21.9525ZM79.6425 21.1605C80.1865 21.1605 80.6305 21.0285 80.9745 20.7645C81.3265 20.4925 81.5025 20.1205 81.5025 19.6485V18.8685H80.6385C79.1825 18.8685 78.4545 19.2805 78.4545 20.1045C78.4545 20.8085 78.8505 21.1605 79.6425 21.1605ZM87.8086 21.8445V18.9165C87.3766 19.3805 86.7766 19.6125 86.0086 19.6125C85.3926 19.6125 84.8886 19.4165 84.4966 19.0245C84.1046 18.6245 83.9086 18.0165 83.9086 17.2005V15.5685H84.9046V17.1525C84.9046 18.2165 85.3606 18.7485 86.2726 18.7485C86.9526 18.7485 87.4646 18.5165 87.8086 18.0525V15.5685H88.8046V21.8445H87.8086ZM92.4606 21.9525C91.8446 21.9525 91.3406 21.8005 90.9486 21.4965C90.5646 21.1845 90.3726 20.7205 90.3726 20.1045C90.3726 19.7605 90.4566 19.4605 90.6246 19.2045C90.8006 18.9405 91.0406 18.7365 91.3446 18.5925C91.6486 18.4405 91.9806 18.3325 92.3406 18.2685C92.7006 18.1965 93.0926 18.1605 93.5166 18.1605H94.4166V17.7045C94.4166 17.2005 94.3126 16.8405 94.1046 16.6245C93.8966 16.4005 93.5526 16.2885 93.0726 16.2885C92.2086 16.2885 91.7286 16.6645 91.6326 17.4165H90.6366C90.7006 16.7445 90.9606 16.2525 91.4166 15.9405C91.8806 15.6205 92.4486 15.4605 93.1206 15.4605C94.6486 15.4605 95.4126 16.2085 95.4126 17.7045V21.8445H94.4166V21.0525C93.9366 21.6525 93.2846 21.9525 92.4606 21.9525ZM92.5566 21.1605C93.1006 21.1605 93.5446 21.0285 93.8886 20.7645C94.2406 20.4925 94.4166 20.1205 94.4166 19.6485V18.8685H93.5526C92.0966 18.8685 91.3686 19.2805 91.3686 20.1045C91.3686 20.8085 91.7646 21.1605 92.5566 21.1605ZM101.525 16.4085H99.4973V21.8445H98.5013V16.4085H96.4733V15.5685H101.525V16.4085ZM102.899 15.5685H103.895V17.7645H105.011C105.715 17.7645 106.291 17.9365 106.739 18.2805C107.187 18.6245 107.411 19.1365 107.411 19.8165V19.8525C107.411 20.5405 107.187 21.0445 106.739 21.3645C106.299 21.6845 105.723 21.8445 105.011 21.8445H102.899V15.5685ZM105.071 21.0645C105.551 21.0645 105.895 20.9645 106.103 20.7645C106.311 20.5565 106.415 20.2525 106.415 19.8525V19.8165C106.415 19.3845 106.307 19.0685 106.091 18.8685C105.883 18.6605 105.543 18.5565 105.071 18.5565H103.895V21.0645H105.071ZM113.228 19.4205C113.14 20.1565 113.004 20.6845 112.82 21.0045H115.76V16.3845H113.456C113.416 17.3605 113.34 18.3725 113.228 19.4205ZM111.98 23.3685H111.176V21.0045H111.62C111.844 20.9485 112 20.7885 112.088 20.5245C112.176 20.2525 112.252 19.8645 112.316 19.3605C112.388 18.7125 112.456 17.8965 112.52 16.9125C112.552 16.4725 112.576 16.0245 112.592 15.5685H116.732V21.0045H117.692V23.3685H116.888L116.816 21.8445H112.052L111.98 23.3685ZM120.317 19.4205C120.245 20.2845 120.093 20.9165 119.861 21.3165C119.629 21.7085 119.265 21.9045 118.769 21.9045C118.665 21.9045 118.557 21.8965 118.445 21.8805L118.349 21.8445V20.8965L118.433 20.9205C118.513 20.9365 118.597 20.9445 118.685 20.9445C118.813 20.9445 118.917 20.9085 118.997 20.8365C119.085 20.7565 119.153 20.6325 119.201 20.4645C119.257 20.2965 119.297 20.1405 119.321 19.9965C119.345 19.8445 119.373 19.6325 119.405 19.3605C119.437 19.0725 119.485 18.2565 119.549 16.9125L119.585 15.5685H123.725V21.8445H122.729V16.4085H120.473C120.401 18.1365 120.349 19.1405 120.317 19.4205ZM127.826 16.3605C126.93 16.3605 126.482 16.7405 126.482 17.5005V17.5365C126.482 17.8965 126.586 18.1685 126.794 18.3525C127.002 18.5365 127.346 18.6285 127.826 18.6285H129.002V16.3605H127.826ZM126.17 21.8445H125.03L126.938 19.2165C125.97 19.0165 125.486 18.4565 125.486 17.5365V17.5005C125.486 16.8445 125.71 16.3605 126.158 16.0485C126.606 15.7285 127.182 15.5685 127.886 15.5685H129.998V21.8445H129.002V19.3845H127.922L126.17 21.8445ZM62.486 30.9745H65.438L67.454 39.8665L69.65 30.9745H72.134L74.42 39.9205L76.508 30.9745H79.208L76.076 43.8445H73.106L70.784 34.9525L68.426 43.8445H65.618L62.486 30.9745ZM83.1974 32.7565C82.9094 33.0205 82.5554 33.1525 82.1354 33.1525C81.7154 33.1525 81.3614 33.0205 81.0734 32.7565C80.7974 32.4805 80.6594 32.1385 80.6594 31.7305C80.6594 31.3225 80.7974 30.9865 81.0734 30.7225C81.3614 30.4465 81.7154 30.3085 82.1354 30.3085C82.5554 30.3085 82.9094 30.4465 83.1974 30.7225C83.4854 30.9865 83.6294 31.3225 83.6294 31.7305C83.6294 32.1385 83.4854 32.4805 83.1974 32.7565ZM80.8574 34.4305H83.4494V43.8445H80.8574V34.4305ZM86.0588 34.4305H88.6688V35.9245C89.2568 34.7845 90.2768 34.2145 91.7288 34.2145C92.6768 34.2145 93.4388 34.5025 94.0148 35.0785C94.6028 35.7025 94.8968 36.6265 94.8968 37.8505V43.8445H92.2868V38.2285C92.2868 37.5805 92.1548 37.1065 91.8908 36.8065C91.6268 36.4945 91.2068 36.3385 90.6308 36.3385C90.0428 36.3385 89.5688 36.5185 89.2088 36.8785C88.8488 37.2265 88.6688 37.7365 88.6688 38.4085V43.8445H86.0588V34.4305ZM100.872 44.0425C99.684 44.0425 98.718 43.6345 97.974 42.8185C97.182 41.9665 96.786 40.7845 96.786 39.2725V39.1285C96.786 37.6285 97.182 36.4225 97.974 35.5105C98.73 34.6465 99.714 34.2145 100.926 34.2145C102.318 34.2145 103.308 34.7545 103.896 35.8345V30.1645H106.488V43.8445H103.896V42.2785C103.644 42.7825 103.242 43.2025 102.69 43.5385C102.138 43.8745 101.532 44.0425 100.872 44.0425ZM101.646 42.0085C102.354 42.0085 102.918 41.7745 103.338 41.3065C103.758 40.8265 103.968 40.1185 103.968 39.1825V39.0385C103.968 38.1145 103.776 37.4125 103.392 36.9325C103.008 36.4525 102.45 36.2125 101.718 36.2125C100.986 36.2125 100.422 36.4585 100.026 36.9505C99.642 37.4305 99.45 38.1385 99.45 39.0745V39.2185C99.45 40.1305 99.648 40.8265 100.044 41.3065C100.44 41.7745 100.974 42.0085 101.646 42.0085ZM113.425 42.0625C114.157 42.0625 114.721 41.8105 115.117 41.3065C115.525 40.8025 115.729 40.1005 115.729 39.2005V39.0745C115.729 38.1745 115.525 37.4725 115.117 36.9685C114.721 36.4525 114.157 36.1945 113.425 36.1945C112.705 36.1945 112.141 36.4465 111.733 36.9505C111.325 37.4425 111.121 38.1385 111.121 39.0385V39.1825C111.121 40.0945 111.319 40.8025 111.715 41.3065C112.111 41.8105 112.681 42.0625 113.425 42.0625ZM113.407 44.0425C111.967 44.0425 110.791 43.6045 109.879 42.7285C108.931 41.8525 108.457 40.6885 108.457 39.2365V39.0925C108.457 37.6405 108.931 36.4585 109.879 35.5465C110.803 34.6585 111.985 34.2145 113.425 34.2145C114.877 34.2145 116.059 34.6525 116.971 35.5285C117.907 36.4405 118.375 37.6105 118.375 39.0385V39.1825C118.375 40.6345 117.901 41.8165 116.953 42.7285C116.041 43.6045 114.859 44.0425 113.407 44.0425ZM119.209 34.4305H121.945L123.619 40.7665L125.437 34.4305H127.579L129.235 40.7665L131.017 34.4305H133.519L130.549 43.8445H127.993L126.391 37.9405L124.663 43.8445H122.071L119.209 34.4305ZM138.575 44.0425C137.303 44.0425 136.313 43.7725 135.605 43.2325C134.897 42.6925 134.519 41.9125 134.471 40.8925H136.901C136.973 41.3485 137.129 41.6845 137.369 41.9005C137.609 42.1165 138.005 42.2245 138.557 42.2245C139.541 42.2245 140.033 41.8825 140.033 41.1985C140.033 40.8745 139.889 40.6345 139.601 40.4785C139.313 40.3105 138.821 40.1785 138.125 40.0825C136.853 39.8785 135.965 39.5725 135.461 39.1645C134.921 38.7445 134.651 38.0725 134.651 37.1485C134.651 36.2245 135.035 35.4865 135.803 34.9345C136.463 34.4545 137.321 34.2145 138.377 34.2145C139.469 34.2145 140.351 34.4305 141.023 34.8625C141.731 35.3425 142.145 36.0985 142.265 37.1305H139.871C139.799 36.7345 139.649 36.4465 139.421 36.2665C139.193 36.0865 138.851 35.9965 138.395 35.9965C137.975 35.9965 137.645 36.0865 137.405 36.2665C137.177 36.4465 137.063 36.6805 137.063 36.9685C137.063 37.2685 137.189 37.4905 137.441 37.6345C137.705 37.7785 138.185 37.8985 138.881 37.9945C140.117 38.1625 141.023 38.4445 141.599 38.8405C142.223 39.3085 142.535 40.0105 142.535 40.9465C142.535 41.9545 142.187 42.7225 141.491 43.2505C140.807 43.7785 139.835 44.0425 138.575 44.0425Z" fill="#F5F5F7"/>
<path d="M35.1672 12.6167H20V27.2081H35.1672V12.6167Z" fill="#F5F5F7"/>
<path d="M51.9983 12.6167H36.831V27.2081H51.9983V12.6167Z" fill="#F5F5F7"/>
<path d="M35.1672 28.8104H20V43.4019H35.1672V28.8104Z" fill="#F5F5F7"/>
<path d="M51.9983 28.8104H36.831V43.4019H51.9983V28.8104Z" fill="#F5F5F7"/>
</svg>
