<svg width="880" height="48" viewBox="0 0 880 48" fill="none" xmlns="http://www.w3.org/2000/svg">
<path d="M42.2636 23.5704C42.2636 27.1118 41.8156 30.3331 40.9196 33.2344C40.0236 36.0931 38.6796 38.5678 36.8876 40.6584C35.1382 42.7491 32.9409 44.3491 30.2956 45.4584C27.6929 46.5678 24.6636 47.1224 21.2076 47.1224C17.6236 47.1224 14.5089 46.5678 11.8636 45.4584C9.21823 44.3064 7.0209 42.7064 5.27156 40.6584C3.52223 38.5678 2.2209 36.0718 1.36756 33.1704C0.51423 30.2691 0.0875635 27.0478 0.0875635 23.5064C0.0875635 18.8131 0.855563 14.7171 2.39156 11.2184C3.92756 7.71975 6.2529 4.98909 9.36756 3.02642C12.5249 1.06375 16.4929 0.0824203 21.2716 0.0824203C25.8369 0.0824203 29.6769 1.06375 32.7916 3.02642C35.9062 4.94642 38.2529 7.67709 39.8316 11.2184C41.4529 14.7171 42.2636 18.8344 42.2636 23.5704ZM6.16756 23.5704C6.16756 27.4104 6.7009 30.7171 7.76756 33.4904C8.83423 36.2638 10.4769 38.3971 12.6956 39.8904C14.9569 41.3838 17.7942 42.1304 21.2076 42.1304C24.6636 42.1304 27.4796 41.3838 29.6556 39.8904C31.8742 38.3971 33.5169 36.2638 34.5836 33.4904C35.6502 30.7171 36.1836 27.4104 36.1836 23.5704C36.1836 17.8104 34.9889 13.3091 32.5996 10.0664C30.2102 6.78109 26.4342 5.13842 21.2716 5.13842C17.8156 5.13842 14.9569 5.88509 12.6956 7.37842C10.4769 8.82909 8.83423 10.9411 7.76756 13.7144C6.7009 16.4451 6.16756 19.7304 6.16756 23.5704ZM64.9181 46.4824H59.1581V5.84242H44.8861V0.786419H79.1261V5.84242H64.9181V46.4824ZM113.025 11.4744C113.025 14.5891 112.043 17.0638 110.081 18.8984C108.118 20.6904 105.494 21.8424 102.209 22.3544V22.6104C106.049 23.1224 108.971 24.3171 110.977 26.1944C112.982 28.0718 113.985 30.5251 113.985 33.5544C113.985 36.2424 113.302 38.6104 111.937 40.6584C110.571 42.6638 108.523 44.2424 105.793 45.3944C103.062 46.5464 99.6486 47.1224 95.5526 47.1224C93.0779 47.1224 90.7099 46.9304 88.4486 46.5464C86.2299 46.2051 84.1606 45.5651 82.2406 44.6264V39.3784C83.5632 40.0184 84.9712 40.5731 86.4646 41.0424C88.0006 41.4691 89.5366 41.8104 91.0726 42.0664C92.6086 42.2798 94.0806 42.3864 95.4886 42.3864C99.5846 42.3864 102.678 41.6184 104.769 40.0824C106.902 38.5464 107.969 36.3704 107.969 33.5544C107.969 30.6531 106.731 28.5411 104.257 27.2184C101.782 25.8958 98.3259 25.2344 93.8886 25.2344H87.3606V20.4344H93.5686C96.5979 20.4344 99.0939 20.0931 101.057 19.4104C103.062 18.7278 104.555 17.7678 105.537 16.5304C106.561 15.2504 107.073 13.7571 107.073 12.0504C107.073 9.74642 106.219 7.97575 104.513 6.73842C102.806 5.50109 100.587 4.88242 97.8566 4.88242C94.9979 4.88242 92.6086 5.24509 90.6886 5.97042C88.8112 6.69575 86.9766 7.63442 85.1846 8.78642L82.4326 4.88242C83.6272 3.98642 84.9926 3.19709 86.5286 2.51442C88.1072 1.78909 89.8566 1.21309 91.7766 0.786419C93.6966 0.359753 95.7446 0.14642 97.9206 0.14642C101.206 0.14642 103.958 0.637086 106.177 1.61842C108.438 2.59975 110.145 3.94375 111.297 5.65042C112.449 7.31442 113.025 9.25575 113.025 11.4744ZM123.642 46.4824V0.786419H129.402V20.1144H136.442C140.708 20.1144 144.058 20.6904 146.49 21.8424C148.964 22.9944 150.714 24.5518 151.738 26.5144C152.804 28.4771 153.338 30.6744 153.338 33.1064C153.338 35.7944 152.762 38.1411 151.61 40.1464C150.5 42.1518 148.751 43.7091 146.362 44.8184C143.972 45.9278 140.9 46.4824 137.146 46.4824H123.642ZM136.634 41.6184C140.303 41.6184 143.012 40.9144 144.762 39.5064C146.511 38.0984 147.386 35.9651 147.386 33.1064C147.386 31.1438 146.959 29.5864 146.106 28.4344C145.295 27.2824 144.036 26.4504 142.33 25.9384C140.623 25.4264 138.447 25.1704 135.802 25.1704H129.402V41.6184H136.634ZM160.378 46.4824V0.786419H166.138V46.4824H160.378ZM191.635 0.786419C195.432 0.786419 198.611 1.14909 201.171 1.87442C203.774 2.59975 205.715 3.79442 206.995 5.45842C208.318 7.12242 208.979 9.34109 208.979 12.1144C208.979 13.9064 208.638 15.5064 207.955 16.9144C207.315 18.2798 206.334 19.4318 205.011 20.3704C203.731 21.2664 202.152 21.8851 200.275 22.2264V22.5464C202.195 22.8451 203.923 23.3998 205.459 24.2104C207.038 25.0211 208.275 26.1731 209.171 27.6664C210.067 29.1598 210.515 31.1011 210.515 33.4904C210.515 36.2638 209.875 38.6318 208.595 40.5944C207.315 42.5144 205.48 43.9864 203.091 45.0104C200.744 45.9918 197.928 46.4824 194.643 46.4824H178.579V0.786419H191.635ZM192.787 20.2424C196.712 20.2424 199.4 19.6238 200.851 18.3864C202.302 17.1064 203.027 15.2291 203.027 12.7544C203.027 10.2371 202.131 8.44509 200.339 7.37842C198.59 6.26909 195.774 5.71442 191.891 5.71442H184.339V20.2424H192.787ZM184.339 25.0424V41.6184H193.555C197.608 41.6184 200.424 40.8291 202.003 39.2504C203.582 37.6718 204.371 35.6024 204.371 33.0424C204.371 31.4211 204.008 30.0131 203.283 28.8184C202.6 27.6238 201.427 26.7064 199.763 26.0664C198.142 25.3838 195.923 25.0424 193.107 25.0424H184.339ZM220.204 46.4824V0.786419H225.964V20.1144H233.004C237.271 20.1144 240.62 20.6904 243.052 21.8424C245.527 22.9944 247.276 24.5518 248.3 26.5144C249.367 28.4771 249.9 30.6744 249.9 33.1064C249.9 35.7944 249.324 38.1411 248.172 40.1464C247.063 42.1518 245.313 43.7091 242.924 44.8184C240.535 45.9278 237.463 46.4824 233.708 46.4824H220.204ZM233.196 41.6184C236.865 41.6184 239.575 40.9144 241.324 39.5064C243.073 38.0984 243.948 35.9651 243.948 33.1064C243.948 31.1438 243.521 29.5864 242.668 28.4344C241.857 27.2824 240.599 26.4504 238.892 25.9384C237.185 25.4264 235.009 25.1704 232.364 25.1704H225.964V41.6184H233.196ZM256.94 46.4824V0.786419H262.7V46.4824H256.94ZM324.836 46.4824H319.076V25.1704H295.652V46.4824H289.892V0.786419H295.652V20.1144H319.076V0.786419H324.836V46.4824ZM366.001 46.4824L360.497 32.3384H342.385L336.945 46.4824H331.121L348.977 0.594421H354.161L371.953 46.4824H366.001ZM353.649 13.3944C353.521 13.0531 353.308 12.4344 353.009 11.5384C352.71 10.6424 352.412 9.72509 352.113 8.78642C351.857 7.80509 351.644 7.05842 351.473 6.54642C351.26 7.39975 351.025 8.27442 350.769 9.17042C350.556 10.0238 350.321 10.8131 350.065 11.5384C349.852 12.2638 349.66 12.8824 349.489 13.3944L344.305 27.2184H358.769L353.649 13.3944ZM432.092 46.4824H378.204V0.786419H383.964V41.3624H402.204V0.786419H407.964V41.3624H426.268V0.786419H432.092V46.4824ZM444.643 0.786419H450.019V25.8744C450.019 26.9411 449.998 28.1144 449.955 29.3944C449.955 30.6318 449.934 31.8691 449.891 33.1064C449.848 34.3438 449.784 35.4531 449.699 36.4344C449.656 37.3731 449.614 38.0984 449.571 38.6104H449.827L474.979 0.786419H481.379V46.4824H476.003V21.6504C476.003 20.4984 476.024 19.2611 476.067 17.9384C476.11 16.5731 476.152 15.2718 476.195 14.0344C476.28 12.7544 476.344 11.6238 476.387 10.6424C476.43 9.66109 476.472 8.93575 476.515 8.46642H476.259L451.043 46.4824H444.643V0.786419ZM524.744 46.4824H518.216L506.12 26.6424L493.832 46.4824H487.752L502.92 22.6744L488.712 0.786419H495.112L506.312 18.7064L517.576 0.786419H523.656L509.512 22.5464L524.744 46.4824ZM579.298 46.4824H572.386L551.714 23.3144V46.4824H545.954V0.786419H551.714V22.9304L571.874 0.786419H578.402L558.562 22.9944L579.298 46.4824ZM618.413 46.4824H612.653V5.84242H598.189C597.89 8.18909 597.57 10.6638 597.229 13.2664C596.887 15.8264 596.525 18.3651 596.141 20.8824C595.799 23.3998 595.458 25.7678 595.117 27.9864C594.775 30.2051 594.434 32.1464 594.093 33.8104C593.538 36.6691 592.855 39.1011 592.045 41.1064C591.234 43.1118 590.146 44.6264 588.781 45.6504C587.458 46.6744 585.709 47.1864 583.533 47.1864C582.807 47.1864 582.061 47.1011 581.293 46.9304C580.567 46.8024 579.927 46.6318 579.373 46.4184V41.6184C579.842 41.8318 580.375 42.0238 580.973 42.1944C581.57 42.3224 582.21 42.3864 582.893 42.3864C584.173 42.3864 585.175 41.8744 585.901 40.8504C586.669 39.7838 587.266 38.4824 587.693 36.9464C588.119 35.3678 588.482 33.8104 588.781 32.2744C589.037 31.0371 589.335 29.3944 589.677 27.3464C590.018 25.2558 590.381 22.8238 590.765 20.0504C591.191 17.2771 591.618 14.2691 592.045 11.0264C592.514 7.74109 592.962 4.32775 593.389 0.786419H618.413V46.4824ZM630.893 0.786419H636.269V25.8744C636.269 26.9411 636.248 28.1144 636.205 29.3944C636.205 30.6318 636.184 31.8691 636.141 33.1064C636.098 34.3438 636.034 35.4531 635.949 36.4344C635.906 37.3731 635.864 38.0984 635.821 38.6104H636.077L661.229 0.786419H667.629V46.4824H662.253V21.6504C662.253 20.4984 662.274 19.2611 662.317 17.9384C662.36 16.5731 662.402 15.2718 662.445 14.0344C662.53 12.7544 662.594 11.6238 662.637 10.6424C662.68 9.66109 662.722 8.93575 662.765 8.46642H662.509L637.293 46.4824H630.893V0.786419ZM705.49 46.4824H679.954V0.786419H705.49V5.84242H685.714V20.1144H704.338V25.1064H685.714V41.4264H705.49V46.4824ZM750.461 46.4824H744.701V25.1704H721.277V46.4824H715.517V0.786419H721.277V20.1144H744.701V0.786419H750.461V46.4824ZM777.418 46.4824H771.658V5.84242H757.386V0.786419H791.626V5.84242H777.418V46.4824ZM837.139 23.5704C837.139 27.1118 836.691 30.3331 835.795 33.2344C834.899 36.0931 833.555 38.5678 831.763 40.6584C830.013 42.7491 827.816 44.3491 825.171 45.4584C822.568 46.5678 819.539 47.1224 816.083 47.1224C812.499 47.1224 809.384 46.5678 806.739 45.4584C804.093 44.3064 801.896 42.7064 800.147 40.6584C798.397 38.5678 797.096 36.0718 796.243 33.1704C795.389 30.2691 794.963 27.0478 794.963 23.5064C794.963 18.8131 795.731 14.7171 797.267 11.2184C798.803 7.71975 801.128 4.98909 804.243 3.02642C807.4 1.06375 811.368 0.0824203 816.147 0.0824203C820.712 0.0824203 824.552 1.06375 827.667 3.02642C830.781 4.94642 833.128 7.67709 834.707 11.2184C836.328 14.7171 837.139 18.8344 837.139 23.5704ZM801.043 23.5704C801.043 27.4104 801.576 30.7171 802.643 33.4904C803.709 36.2638 805.352 38.3971 807.571 39.8904C809.832 41.3838 812.669 42.1304 816.083 42.1304C819.539 42.1304 822.355 41.3838 824.531 39.8904C826.749 38.3971 828.392 36.2638 829.459 33.4904C830.525 30.7171 831.059 27.4104 831.059 23.5704C831.059 17.8104 829.864 13.3091 827.475 10.0664C825.085 6.78109 821.309 5.13842 816.147 5.13842C812.691 5.13842 809.832 5.88509 807.571 7.37842C805.352 8.82909 803.709 10.9411 802.643 13.7144C801.576 16.4451 801.043 19.7304 801.043 23.5704ZM860.323 0.786419C864.12 0.786419 867.299 1.14909 869.859 1.87442C872.461 2.59975 874.403 3.79442 875.683 5.45842C877.005 7.12242 877.667 9.34109 877.667 12.1144C877.667 13.9064 877.325 15.5064 876.643 16.9144C876.003 18.2798 875.021 19.4318 873.699 20.3704C872.419 21.2664 870.84 21.8851 868.963 22.2264V22.5464C870.883 22.8451 872.611 23.3998 874.147 24.2104C875.725 25.0211 876.963 26.1731 877.859 27.6664C878.755 29.1598 879.203 31.1011 879.203 33.4904C879.203 36.2638 878.563 38.6318 877.283 40.5944C876.003 42.5144 874.168 43.9864 871.779 45.0104C869.432 45.9918 866.616 46.4824 863.331 46.4824H847.267V0.786419H860.323ZM861.475 20.2424C865.4 20.2424 868.088 19.6238 869.539 18.3864C870.989 17.1064 871.715 15.2291 871.715 12.7544C871.715 10.2371 870.819 8.44509 869.027 7.37842C867.277 6.26909 864.461 5.71442 860.579 5.71442H853.027V20.2424H861.475ZM853.027 25.0424V41.6184H862.243C866.296 41.6184 869.112 40.8291 870.691 39.2504C872.269 37.6718 873.059 35.6024 873.059 33.0424C873.059 31.4211 872.696 30.0131 871.971 28.8184C871.288 27.6238 870.115 26.7064 868.451 26.0664C866.829 25.3838 864.611 25.0424 861.795 25.0424H853.027Z" fill="black"/>
</svg>
